<svg xmlns="http://www.w3.org/2000/svg" width="1024" height="1024" viewBox="0 0 1024 1024" version="1.1"><path d="M 508.452 220.750 C 506.971 223.912, 501.520 233.574, 496.338 242.219 C 482.456 265.381, 481.583 267.552, 481.538 279 C 481.505 287.355, 481.827 289.167, 484.216 294.030 C 485.710 297.072, 488.480 301.369, 490.372 303.579 C 494.062 307.890, 501.694 313.639, 502.568 312.766 C 502.860 312.474, 501.979 310.585, 500.611 308.568 C 497.060 303.335, 495.690 298.458, 496.277 293.131 C 496.946 287.055, 512.559 256, 514.945 256 C 515.925 256, 518.820 259.683, 522.216 265.250 C 532.454 282.031, 534.370 289.103, 531.605 299.898 C 530.722 303.343, 529.325 307.126, 528.500 308.304 C 524.295 314.306, 530.588 311.286, 537.351 304.055 C 550.430 290.074, 551.395 273.270, 540.285 253 C 532.826 239.390, 514.935 215, 512.411 215 C 511.715 215, 509.933 217.588, 508.452 220.750 M 505.295 291.105 C 504.488 291.912, 505.243 293.599, 508.091 297.355 C 512.562 303.250, 513.479 306.778, 512.719 315.157 C 512.208 320.798, 512.292 321.099, 514.300 320.808 C 517.190 320.388, 519.317 313.188, 518.498 306.594 C 517.206 296.179, 509.390 287.010, 505.295 291.105 M 339 313.300 C 339 313.466, 341.385 316.064, 344.301 319.074 C 350.969 325.958, 353.495 331.222, 355.378 342.161 C 357.181 352.634, 359.425 357.293, 365.254 362.667 C 369.956 367.001, 381.369 373, 384.912 373 C 386.725 373, 386.941 372.595, 386.377 370.250 C 384.937 364.262, 380.584 353.120, 376.890 345.964 C 372.546 337.549, 372.396 337, 374.443 337 C 376.392 337, 386.283 349.790, 389.348 356.274 C 390.707 359.148, 392.134 363.188, 392.521 365.250 C 393.579 370.902, 394.758 369.774, 395.553 362.347 C 398.585 334.034, 378.452 313, 348.318 313 C 343.193 313, 339 313.135, 339 313.300 M 401.665 317.391 C 395.567 322.381, 393.840 327.950, 395.625 336.875 C 396.421 340.856, 398 340.939, 398 337 C 398 332.407, 400.685 333.174, 401.500 338 C 402.249 342.431, 402.932 342.838, 405.275 340.248 C 408.589 336.586, 409.166 333.083, 407.436 327.130 C 406.543 324.059, 406.051 320.073, 406.343 318.273 C 406.982 314.339, 405.693 314.096, 401.665 317.391 M 491.054 326.528 C 474.372 329.547, 463.817 334.532, 457.572 342.342 L 454.500 346.184 454.223 394.386 L 453.945 442.589 461.223 444.890 C 482.169 451.514, 500.815 467.044, 508.522 484.284 C 510.160 487.948, 511.740 490.958, 512.034 490.973 C 512.328 490.988, 513.336 488.931, 514.273 486.402 C 521.778 466.152, 545.802 447.473, 570.750 442.490 L 574 441.841 574 394.871 C 574 342.724, 574.306 345.219, 567.124 338.731 C 562.171 334.256, 559.396 332.808, 550.500 330.057 C 534.757 325.189, 507.421 323.566, 491.054 326.528 M 419 343.736 C 405.878 352.295, 399.950 367.039, 404.953 378.669 C 407.069 383.589, 412.413 389.920, 413.518 388.816 C 413.814 388.520, 413.593 387.061, 413.028 385.574 C 411.446 381.412, 411.692 371, 413.372 371 C 414.217 371, 414.997 372.634, 415.400 375.250 C 416.274 380.909, 418.960 389, 419.965 389 C 421.285 389, 423.760 384.611, 425.583 379.036 C 427.464 373.284, 427.129 370.708, 423.053 359.622 C 420.906 353.781, 421.018 349.672, 423.485 343.750 C 424.413 341.521, 422.405 341.515, 419 343.736 M 603.136 368.941 C 602.486 371.109, 600.615 375.430, 598.977 378.543 C 595.339 385.459, 595.123 390.902, 598.266 396.422 C 599.495 398.579, 601.037 400.521, 601.692 400.736 C 602.877 401.126, 606 392.485, 606 388.818 C 606 387.818, 606.711 387, 607.580 387 C 608.934 387, 609.056 387.960, 608.437 393.741 C 607.763 400.036, 607.829 400.387, 609.431 399.057 C 614.292 395.023, 616.605 383.351, 613.934 376.328 C 612.544 372.670, 606.808 365.071, 605.408 365.031 C 604.808 365.014, 603.785 366.774, 603.136 368.941 M 429.953 379.735 C 424.380 388.523, 423.828 396.501, 428.334 403.150 C 431.647 408.039, 433.186 408.017, 432.399 403.092 C 431.870 399.784, 432.041 399, 433.292 399 C 434.261 399, 435.460 400.870, 436.500 404 C 437.413 406.750, 438.478 409, 438.865 409 C 440.064 409, 442.784 403.678, 443.464 400 C 443.992 397.146, 443.378 395.023, 440.137 388.496 C 437.950 384.094, 435.851 379.256, 435.472 377.746 C 434.507 373.898, 433.403 374.295, 429.953 379.735 M 371.168 380.689 C 367.080 382.135, 354 393.125, 354 395.115 C 354 395.602, 355.688 396.011, 357.750 396.024 C 359.813 396.037, 364.200 397.193, 367.500 398.593 C 379.786 403.806, 381.491 404.214, 385.966 403.009 C 389.703 402.003, 398 395.830, 398 394.055 C 398 393.152, 388.790 391, 384.924 391 C 382.891 391, 382 390.505, 382 389.375 C 382 387.967, 383.137 387.809, 390.500 388.195 C 395.175 388.441, 399 388.356, 399 388.008 C 399 386.633, 393.298 382.022, 389.782 380.553 C 385.146 378.616, 376.860 378.677, 371.168 380.689 M 635.500 383.802 C 629.335 385.944, 621.830 391.026, 619.034 394.952 C 615.338 400.142, 611.940 408.689, 611.391 414.173 L 610.858 419.500 612.969 417 C 614.130 415.625, 616.833 412.426, 618.974 409.891 C 622.737 405.437, 632.710 398, 634.919 398 C 637.246 398, 635.777 400.794, 630.956 405.538 C 626.274 410.144, 616 423.897, 616 425.558 C 616 425.960, 619.440 426.029, 623.644 425.711 C 629.377 425.277, 632.877 424.351, 637.637 422.007 C 644.197 418.778, 647.234 415.409, 651.934 406.151 C 655.122 399.871, 661.154 393.745, 666.911 390.939 C 669.663 389.598, 671.788 388.050, 671.632 387.500 C 671.477 386.950, 668.683 385.514, 665.425 384.309 C 657.729 381.464, 642.952 381.213, 635.500 383.802 M 405.013 395.733 C 405.020 396.155, 408.508 398.748, 412.763 401.495 C 425.652 409.816, 434.943 420.256, 447.633 440.677 C 450.035 444.544, 450.081 440.857, 447.695 435.646 C 440.617 420.186, 426.453 405.800, 410.250 397.618 C 407.363 396.159, 405.006 395.311, 405.013 395.733 M 607.561 407.901 C 607.255 408.397, 606.473 412.222, 605.823 416.401 C 604.602 424.252, 603.113 425.948, 600.964 421.933 C 598.890 418.057, 584.180 410.487, 582.325 412.341 C 582.065 412.601, 582.592 414.244, 583.495 415.991 C 584.399 417.738, 585.583 421.943, 586.126 425.334 C 587.538 434.152, 589.900 437.019, 597.750 439.441 C 599.696 440.041, 600 439.773, 600 437.459 C 600 435.040, 600.263 434.849, 602.748 435.473 C 604.259 435.852, 605.544 436.238, 605.602 436.331 C 605.661 436.424, 606.260 440.100, 606.934 444.500 C 607.608 448.900, 608.834 455.538, 609.660 459.250 C 610.950 465.055, 611.465 466, 613.336 466 C 614.814 466, 615.958 467.009, 616.904 469.145 C 618.580 472.931, 625.643 480, 627.750 480 C 629.029 480, 629.152 478.745, 628.561 471.750 C 628.178 467.212, 627.621 462.488, 627.324 461.250 C 626.957 459.724, 627.237 459, 628.194 459 C 629.767 459, 632.606 466.215, 633.606 472.750 C 633.963 475.087, 634.597 477, 635.014 477 C 636.768 477, 639.200 469.453, 639.200 464.008 C 639.200 456.482, 636.440 450.340, 630.313 444.234 C 626.443 440.376, 617.852 435, 615.558 435 C 615.303 435, 615.355 437.204, 615.674 439.897 C 616.519 447.026, 615.139 460, 613.536 460 C 611.172 460, 607.562 430.256, 608.288 416.750 C 608.799 407.231, 608.702 406.055, 607.561 407.901 M 389.492 411.844 C 383.780 414.546, 370 425.215, 370 426.935 C 370 427.380, 371.859 428.042, 374.132 428.405 C 376.404 428.768, 382.880 431.076, 388.522 433.533 C 400.116 438.581, 405.786 439.189, 412.565 436.110 C 416.687 434.237, 424 428.429, 424 427.027 C 424 426.190, 408.581 424, 402.682 424 C 400.168 424, 399 423.550, 399 422.580 C 399 420.579, 410.690 419.458, 419.250 420.636 C 422.962 421.147, 426 421.260, 426 420.886 C 426 420.513, 424.342 418.751, 422.315 416.972 C 412.700 408.530, 400.520 406.627, 389.492 411.844 M 424.500 433.659 C 421.354 435.314, 416 439.934, 416 440.992 C 416 441.332, 419.384 442.179, 423.521 442.874 C 430.651 444.072, 431.222 444.026, 434.521 441.987 C 437.191 440.337, 438 439.167, 438 436.954 C 438 432.073, 430.836 430.325, 424.500 433.659 M 423.750 448.716 C 422.238 448.945, 421.008 449.440, 421.018 449.816 C 421.028 450.192, 422.362 452.457, 423.983 454.848 C 428.218 461.098, 430.595 468.136, 433.564 483.221 C 436.648 498.891, 440.143 506.960, 446.810 513.805 C 452.456 519.601, 462.766 524.890, 475.470 528.508 C 485.080 531.245, 499 532.929, 499 531.355 C 499 529.980, 489.502 513.645, 483.976 505.518 C 481.352 501.658, 476.009 495.053, 472.103 490.841 C 468.196 486.628, 465 482.690, 465 482.091 C 465 476.010, 489.053 496.463, 497.821 510 C 500.136 513.575, 503.262 519.532, 504.766 523.238 C 506.269 526.943, 507.837 529.981, 508.250 529.988 C 508.663 529.994, 509 524.897, 509 518.660 C 509 497.247, 504.085 485.084, 489.490 470.378 C 481.765 462.596, 479.040 460.578, 470.926 456.630 C 456.328 449.529, 438.324 446.508, 423.750 448.716 M 573 449.502 C 555.913 452.957, 545.276 458.590, 533.471 470.438 C 523.025 480.922, 518.128 489.612, 515.567 502.208 C 514.040 509.718, 513.340 530.994, 514.663 529.671 C 515.027 529.306, 516.529 526.155, 518 522.669 C 523.557 509.496, 535.712 494.781, 548.407 485.856 C 555.596 480.801, 558 479.961, 558 482.500 C 558 483.325, 557.624 484, 557.165 484 C 555.907 484, 543.218 499.118, 537.168 507.826 C 531.242 516.354, 525 528.049, 525 530.623 C 525 534.711, 551.876 529.328, 564.473 522.716 C 567.788 520.977, 573.446 516.616, 577.048 513.027 C 584.503 505.595, 587.002 500.249, 589.616 486.141 C 592.306 471.618, 594.951 462.797, 598.621 456.099 C 601.353 451.113, 601.838 449.513, 600.814 448.864 C 598.813 447.595, 580.336 448.019, 573 449.502 M 661.482 468.289 C 660.372 470.055, 655.457 474.200, 650.559 477.500 C 640.379 484.359, 637.992 487.781, 638.015 495.484 C 638.043 504.478, 639.968 504.803, 647.453 497.079 C 651.390 493.016, 654.025 491.873, 653.972 494.250 C 653.936 495.891, 648.627 502.872, 646.035 504.688 C 643.431 506.512, 643.411 507.967, 646 507.290 C 648.521 506.630, 648.508 507.597, 645.916 513.456 C 644.770 516.047, 644.053 518.387, 644.323 518.656 C 644.592 518.925, 646.542 518.665, 648.656 518.078 C 653.739 516.667, 655 516.725, 655 518.370 C 655 519.140, 653.031 520.291, 650.500 521 C 648.025 521.693, 646 522.585, 646 522.983 C 646 523.381, 642.809 524.234, 638.909 524.878 C 631.965 526.025, 624.259 528.593, 625.135 529.468 C 625.378 529.711, 627.359 529.275, 629.538 528.499 C 636.179 526.133, 648 526.855, 648 529.625 C 648 530.425, 646.955 531, 645.500 531 C 641.928 531, 642.406 532.298, 646.913 534.831 C 650.329 536.751, 651.726 536.947, 657.913 536.371 C 661.811 536.009, 665 535.360, 665 534.929 C 665 533.656, 657.693 527.982, 655.250 527.358 C 651.519 526.405, 652.709 524.311, 657.695 523.055 C 664.395 521.368, 670.297 515.227, 672.499 507.651 C 674.371 501.212, 673.968 499.914, 670.727 501.938 C 668.565 503.288, 659.657 505.965, 657.250 505.988 C 655.075 506.009, 655.898 503.113, 658.562 501.367 C 662.427 498.835, 666.186 490.547, 666.770 483.270 C 667.246 477.347, 665.440 464.955, 664.113 465.039 C 663.776 465.060, 662.592 466.522, 661.482 468.289 M 601 466.570 C 601 466.883, 602.382 469.148, 604.071 471.603 C 609.722 479.817, 611.413 484.796, 611.338 493 C 611.259 501.631, 608.352 511.308, 605.684 511.822 C 604.285 512.092, 604 511.294, 604 507.111 C 604 504.341, 603.068 499.583, 601.928 496.538 C 599.865 491.023, 598 489.292, 598 492.892 C 598 493.932, 596.044 496.970, 593.654 499.642 C 591.263 502.314, 588.788 505.483, 588.154 506.684 C 586.707 509.424, 586.675 514.021, 588.078 517.685 L 589.155 520.500 590.988 518.250 C 593.477 515.194, 595.389 515.315, 594.595 518.478 C 594.015 520.787, 594.177 520.915, 596.987 520.353 C 601.981 519.354, 600.684 521.984, 591.619 531.234 C 565.015 558.382, 521.299 583.643, 480.391 595.505 C 438.781 607.571, 397.441 606.481, 389.634 593.113 C 388.001 590.317, 387.891 589.306, 388.867 586.050 C 391.354 577.748, 405.576 569.381, 422.490 566.268 C 431.979 564.521, 433.451 564.118, 432.784 563.451 C 431.952 562.619, 413.975 564.953, 408.038 566.663 C 395.666 570.226, 383.280 578.751, 380.352 585.718 C 377.324 592.923, 379.082 599.131, 385.890 605.282 C 402.999 620.739, 441.463 621.858, 488 608.252 C 509.304 602.024, 508 602.190, 508 605.702 C 508 611.875, 511.055 619.145, 515.766 624.181 C 523.360 632.300, 535.011 637.913, 553 642.121 C 563.300 644.530, 598.235 646.047, 599.416 644.136 C 599.919 643.323, 597.758 642.998, 591.809 642.994 C 574.244 642.982, 552.471 638.330, 538.500 631.605 C 519.579 622.497, 512.898 611.644, 519.406 600.588 C 521.914 596.327, 523.763 595.061, 543 584.423 C 580.241 563.829, 611.615 535.027, 617.890 515.673 C 622.021 502.929, 621.413 492.611, 615.896 481.796 C 612.753 475.635, 601 463.622, 601 466.570 M 633.805 489 C 633.489 489.825, 632.474 493.410, 631.551 496.966 C 630.627 500.522, 628.326 506.570, 626.436 510.406 C 622.545 518.304, 622.421 518.726, 624.494 517.005 C 629.074 513.204, 635.579 496.158, 634.746 490.140 C 634.504 488.392, 634.186 488.007, 633.805 489 M 566.500 530.012 C 552.916 536.444, 533.893 539.992, 513 539.992 C 490.723 539.992, 476.078 537.057, 455.750 528.521 C 454.104 527.830, 454 529.702, 454 559.893 C 454 588.249, 454.181 592, 455.553 592 C 458.040 592, 470.638 589.063, 482 585.834 C 508.999 578.162, 543.692 559.934, 568.250 540.517 C 573.720 536.192, 574 535.752, 574 531.485 C 574 529.018, 573.663 527.039, 573.250 527.086 C 572.837 527.133, 569.800 528.450, 566.500 530.012 M 620.994 534.934 C 616.091 536.426, 612.340 538.908, 608.198 543.401 C 603.772 548.202, 602.755 550.731, 605.750 549.487 C 606.712 549.087, 609.300 548.196, 611.500 547.507 C 625.794 543.029, 628.629 545.759, 614.990 550.867 C 610.046 552.719, 606 554.657, 606 555.174 C 606 555.690, 608.089 557.037, 610.643 558.166 C 614.156 559.720, 616.715 560.116, 621.165 559.794 C 626.408 559.415, 627.993 558.714, 635.773 553.331 C 640.573 550.010, 645.962 546.541, 647.750 545.621 C 649.538 544.701, 651 543.582, 651 543.133 C 651 541.504, 640.896 536.873, 634.280 535.471 C 626.805 533.887, 624.713 533.803, 620.994 534.934 M 589.324 560.439 C 587.027 561.158, 583.652 562.674, 581.824 563.810 C 577.993 566.189, 570.397 573.730, 571.112 574.445 C 571.377 574.710, 573.822 574.254, 576.547 573.433 C 579.271 572.611, 584.763 571.661, 588.750 571.322 C 594.844 570.805, 596 570.949, 596 572.228 C 596 573.127, 594.743 574.001, 592.932 574.364 C 586.893 575.571, 573 580.136, 573 580.912 C 573 581.348, 576.143 583.153, 579.985 584.923 C 585.049 587.258, 588.417 588.143, 592.235 588.142 C 598.576 588.142, 601.234 587.200, 611 581.496 C 615.125 579.087, 620.638 576.546, 623.250 575.851 C 625.862 575.155, 628 574.275, 628 573.896 C 628 572.578, 620.896 566.981, 616.213 564.610 C 605.730 559.301, 597.197 557.978, 589.324 560.439 M 429.240 569.110 C 424.188 571.611, 421.685 574.873, 418.414 583.219 C 417.082 586.618, 414.789 590.654, 413.319 592.189 C 411.849 593.723, 410.988 595.321, 411.407 595.740 C 412.617 596.949, 425.124 596.485, 429.336 595.074 C 434.445 593.362, 439.897 588.436, 442.135 583.509 C 443.876 579.676, 444.716 571, 443.346 571 C 442.986 571, 441.151 572.800, 439.268 575 C 435.994 578.825, 433 580.219, 433 577.918 C 433 577.323, 434.575 574.915, 436.500 572.565 C 438.425 570.216, 440 568.003, 440 567.647 C 440 566.212, 433.236 567.132, 429.240 569.110 M 547.669 588.727 C 547.298 589.327, 549.243 589.988, 552.504 590.371 C 558.197 591.041, 567.887 594.262, 571.750 596.769 C 574.539 598.580, 574.682 601, 572 601 C 570.900 601, 570 601.247, 570 601.550 C 570 603.435, 573.387 607.977, 576.894 610.795 C 579.150 612.608, 581.691 615.435, 582.540 617.078 C 584.709 621.271, 586 619.844, 586 613.257 C 586 603.025, 580.572 595.856, 569.015 590.823 C 563.949 588.617, 548.664 587.116, 547.669 588.727 M 538.517 594.123 C 532.276 595.600, 532.390 596.620, 538.942 597.909 C 542.983 598.704, 545 599.578, 545 600.535 C 545 601.691, 543.836 601.848, 539 601.342 C 535.416 600.968, 533 601.100, 533 601.670 C 533 603.643, 538.916 608.192, 542.547 609.011 C 547.031 610.022, 562 607.367, 562 605.561 C 562 604.926, 560.313 602.789, 558.250 600.813 C 551.737 594.574, 545.522 592.466, 538.517 594.123 M 495.994 612.934 C 485.187 616.222, 480 623.481, 480 635.319 C 480 641.609, 481.483 648, 482.943 648 C 483.354 648, 484.547 647.034, 485.595 645.854 C 486.643 644.673, 489.750 642.245, 492.500 640.457 C 501.829 634.393, 505 629.410, 505 620.816 C 505 615.633, 503.312 615.166, 499.835 619.384 C 496.948 622.887, 494 624.155, 494 621.894 C 494 621.286, 495.350 619.083, 497 617 C 501.126 611.791, 501.030 611.402, 495.994 612.934 M 459 711.875 C 459 732.706, 458.719 751.156, 458.375 752.875 L 457.750 756 463.375 756 L 469 756 469 715 L 469 674 464 674 L 459 674 459 711.875 M 567.456 675.253 C 567.192 675.942, 567.094 693.829, 567.238 715.003 L 567.500 753.500 573 755.415 C 576.634 756.681, 581.383 757.357, 587 757.409 C 594.363 757.476, 596.169 757.131, 600.500 754.832 C 606.796 751.491, 611.325 746.796, 613.920 740.921 C 620.025 727.097, 615.932 709.616, 604.876 702.300 C 599.272 698.591, 590.450 698.351, 584.693 701.752 C 577.974 705.719, 578 705.768, 578 689 L 578 674 572.969 674 C 569.860 674, 567.754 674.479, 567.456 675.253 M 191 682.550 C 191 687.213, 190.442 691.179, 189.540 692.923 C 187.084 697.672, 189.265 698.331, 194.066 694.291 C 197.892 691.072, 201.977 682.803, 201.990 678.250 L 202 675 196.500 675 L 191 675 191 682.550 M 862.680 678.750 C 857.114 687.649, 854.803 692.136, 855.449 692.782 C 856.521 693.854, 862.186 690.073, 868.890 683.812 C 874.411 678.656, 874.835 677.977, 873.419 676.562 C 872.560 675.703, 870.320 675, 868.441 675 C 865.577 675, 864.646 675.606, 862.680 678.750 M 255 680 C 252.593 682.407, 252.499 683.840, 254.557 686.777 C 257.457 690.919, 266 688.958, 266 684.151 C 266 678.665, 258.983 676.017, 255 680 M 174 679.725 L 169.500 680.090 169.500 720.295 C 169.500 762.879, 169.002 768.474, 164.813 772.970 C 162.400 775.561, 159.461 775.161, 153.827 771.476 L 150.154 769.074 148.077 772.594 C 145.378 777.168, 145.440 777.659, 148.950 779.474 C 158.274 784.296, 172.052 778.082, 177.069 766.794 C 179.368 761.619, 179.437 760.592, 180.126 721.017 C 180.513 698.751, 180.617 680.189, 180.356 679.767 C 180.095 679.345, 179.571 679.081, 179.191 679.180 C 178.811 679.279, 176.475 679.525, 174 679.725 M 809.357 686.924 C 806.565 688.626, 806.136 689.517, 805.509 694.920 C 804.887 700.284, 804.547 701, 802.624 701 C 799.583 701, 796 703.735, 796 706.057 C 796 707.685, 796.709 708, 800.377 708 L 804.754 708 804.627 728.415 C 804.483 751.505, 804.790 752.595, 812.495 756.419 C 815.916 758.117, 816.997 758.204, 821.895 757.176 C 827.829 755.932, 831.433 753.293, 830.504 750.872 C 830.059 749.712, 828.631 749.471, 824.124 749.797 C 818.746 750.186, 818.157 750.014, 816.158 747.474 C 814.125 744.889, 814 743.665, 814 726.365 L 814 708 821.500 708 L 829 708 829 704.500 L 829 701 821.500 701 L 814 701 814 693 C 814 688.600, 813.663 685.002, 813.250 685.004 C 812.837 685.006, 811.086 685.870, 809.357 686.924 M 210.667 700.163 C 205.534 701.602, 199 707.865, 199 711.345 C 199 712.805, 199.235 714, 199.521 714 C 199.808 714, 201.886 712.780, 204.138 711.290 C 207.212 709.256, 209.809 708.480, 214.550 708.178 C 220.274 707.813, 221.107 708.016, 223.433 710.342 C 225.335 712.244, 226 713.947, 226 716.916 C 226 720.795, 225.865 720.957, 221.750 721.995 C 206.217 725.913, 198.031 730.734, 195.455 737.479 C 189.603 752.802, 203.848 762.649, 219.558 754.140 C 222.746 752.413, 225.754 751, 226.242 751 C 226.730 751, 228.307 752.399, 229.746 754.110 C 232.150 756.967, 232.754 757.182, 237.191 756.756 C 242.343 756.261, 246.212 753.716, 245.326 751.406 C 245.029 750.633, 243.539 750, 242.015 750 C 236.922 750, 236.500 748.362, 236.500 728.595 C 236.500 708.342, 235.729 705.498, 229.209 701.690 C 225.351 699.437, 216.004 698.667, 210.667 700.163 M 302.791 699.988 C 301.302 700.437, 298.757 701.749, 297.137 702.902 C 293.216 705.694, 291.158 705.547, 289.957 702.388 C 289.173 700.325, 288.495 699.902, 286.732 700.374 C 285.504 700.703, 283.938 700.979, 283.250 700.986 C 282.281 700.997, 282 707.174, 282 728.500 L 282 756 286.980 756 L 291.961 756 292.230 734.357 L 292.500 712.714 295.080 710.789 C 299.195 707.718, 305.391 706.719, 309.549 708.456 C 315.294 710.857, 316 713.921, 316 736.468 L 316 756 321.066 756 L 326.133 756 325.994 735.250 C 325.918 723.837, 325.888 713.974, 325.928 713.332 C 326.078 710.902, 332.619 708, 337.945 708 C 342.369 708, 343.594 708.441, 346.077 710.923 L 349 713.846 349 734.923 L 349 756 354.611 756 L 360.221 756 359.510 734.250 C 358.929 716.474, 358.465 711.728, 356.968 708.277 C 352.627 698.267, 338.671 696.173, 328.809 704.051 C 324.433 707.547, 323.573 707.656, 321.682 704.956 C 318.342 700.188, 309.683 697.911, 302.791 699.988 M 390.994 699.934 C 379.625 703.392, 372.189 713.620, 371.223 727.127 C 369.771 747.418, 386.131 762.143, 404.432 757.019 C 410.303 755.375, 417 749.684, 417 746.339 C 417 744.961, 416.663 744.006, 416.250 744.218 C 407.896 748.499, 405.412 749.198, 399.948 748.803 C 389.755 748.065, 382.085 740.555, 382.022 731.250 L 382 728 400.500 728 L 419 728 418.978 721.750 C 418.942 711.620, 414.257 704.093, 405.782 700.553 C 401.879 698.923, 395.233 698.645, 390.994 699.934 M 497.667 700.163 C 492.534 701.602, 486 707.865, 486 711.345 C 486 714.061, 488.242 715.036, 489.564 712.896 C 490.881 710.765, 498.548 708.044, 503.295 708.022 C 509.591 707.993, 513 711.085, 513 716.823 L 513 720.736 506.750 722.481 C 496.924 725.225, 488.781 729.334, 485.299 733.306 C 475.090 744.953, 484.850 760.789, 499.904 757.004 C 502.432 756.369, 506.616 754.698, 509.203 753.291 L 513.905 750.734 516.541 753.867 C 518.678 756.407, 519.928 757, 523.139 757 C 527.039 757, 533 754.687, 533 753.174 C 533 751.679, 530.578 750, 528.422 750 C 527.225 750, 525.782 749.438, 525.217 748.750 C 524.624 748.030, 524.042 739.655, 523.844 729 C 523.460 708.354, 522.648 705.451, 516.209 701.690 C 512.351 699.437, 503.004 698.667, 497.667 700.163 M 643.137 700.369 C 628.294 705.741, 620.893 726.661, 628.082 742.921 C 634.629 757.727, 652.661 762.548, 665.825 753.012 C 669.490 750.357, 672.111 745.778, 670.747 744.414 C 670.476 744.143, 668.060 745.100, 665.377 746.541 C 652.658 753.372, 636 744.866, 636 731.540 L 636 728 655.129 728 L 674.258 728 673.580 722.750 C 672.480 714.223, 671.237 710.727, 667.845 706.621 C 662.189 699.773, 651.946 697.181, 643.137 700.369 M 699.500 699.935 C 692.097 701.737, 686 707.021, 686 711.635 C 686 713.979, 687.376 714.818, 688.428 713.116 C 689.744 710.987, 698.271 708, 703.035 708 C 709.653 708, 713 710.994, 713 716.916 C 713 720.792, 712.861 720.959, 708.750 722.018 C 696.048 725.290, 687.094 729.655, 683.909 734.127 C 680.492 738.926, 680.164 746.524, 683.181 751 C 688.180 758.417, 696.128 759.601, 706.600 754.489 C 712.957 751.386, 714.076 751.387, 717 754.500 C 719.774 757.452, 725.410 757.873, 730.050 755.474 C 734.480 753.183, 733.396 750.500, 728.039 750.500 C 723.784 750.500, 723.033 747.220, 722.998 728.500 C 722.969 712.789, 722.797 711.197, 720.729 707.500 C 716.941 700.727, 708.541 697.734, 699.500 699.935 M 855 699.936 C 847.184 701.513, 840.534 707.324, 836.675 715.949 C 834.099 721.707, 833.956 734.370, 836.393 740.931 C 840.138 751.012, 847.815 756.894, 858.326 757.738 C 863.354 758.142, 865.594 757.800, 869.809 755.987 C 875.421 753.573, 880 749.051, 880 745.923 C 880 743.566, 880.470 743.516, 874.581 746.504 C 863.992 751.876, 852.227 748.172, 846.903 737.790 C 845.856 735.749, 845 732.722, 845 731.062 L 845 728.044 863.750 727.772 L 882.500 727.500 882.192 721.500 C 881.616 710.285, 875.354 702.100, 865.779 700.046 C 860.455 698.904, 860.131 698.901, 855 699.936 M 745.169 700.965 L 740.838 701.500 740.955 723.367 C 741.083 747.367, 741.537 749.750, 746.840 754.212 C 752.747 759.183, 761.354 759.064, 769.497 753.900 C 774.584 750.673, 777 750.696, 777 753.969 C 777 755.710, 777.643 756, 781.500 756 L 786 756 786 727.893 C 786 702.674, 785.837 699.848, 784.418 700.393 C 783.548 700.727, 781.307 701, 779.438 701 L 776.039 701 775.770 722.719 L 775.500 744.438 771.519 746.670 C 763.396 751.225, 754.788 750.219, 752.139 744.405 C 751.406 742.797, 751 734.633, 751 721.512 C 751 710.295, 750.663 700.963, 750.250 700.774 C 749.837 700.584, 747.551 700.670, 745.169 700.965 M 254 728.500 L 254 756 259 756 L 264 756 264 728.500 L 264 701 259 701 L 254 701 254 728.500 M 391.244 706.110 C 387.390 707.235, 383.200 712.992, 382.329 718.360 L 381.738 722 395.497 722 L 409.256 722 408.591 717.841 C 407.040 708.147, 400.175 703.504, 391.244 706.110 M 644 706.752 C 640.274 708.613, 636 715.537, 636 719.712 C 636 721.979, 636.121 722, 649 722 L 662 722 662 718.401 C 662 713.195, 659.376 708.406, 655.522 706.577 C 651.236 704.543, 648.332 704.587, 644 706.752 M 850.941 708.703 C 847.607 711.509, 845 716.452, 845 719.968 C 845 721.910, 845.596 722, 858.500 722 C 873.544 722, 873.041 722.290, 870.965 714.814 C 868.591 706.267, 857.764 702.962, 850.941 708.703 M 581.250 709.989 L 578 711.971 578 729.462 L 578 746.954 580.500 748.592 C 581.875 749.493, 585.813 750.432, 589.250 750.679 C 597.703 751.285, 601.030 749.210, 603.900 741.538 C 608.330 729.697, 605.423 714.667, 597.805 710.022 C 593.403 707.339, 585.622 707.323, 581.250 709.989 M 215.724 729.422 C 208.899 732.229, 207.369 733.386, 205.371 737.250 C 203.434 740.995, 204.389 745.374, 207.712 747.988 C 210.991 750.567, 214.885 750.535, 221.065 747.877 L 226 745.754 226 736.377 C 226 727.312, 225.925 727.001, 223.750 727.024 C 222.512 727.037, 218.901 728.116, 215.724 729.422 M 502.500 729.500 C 495.012 732.560, 492.012 736.041, 492.005 741.677 C 492.001 745.003, 492.538 746.278, 494.635 747.927 C 497.989 750.566, 501.847 750.551, 508.065 747.877 L 513 745.754 513 736.377 C 513 727.312, 512.925 727.001, 510.750 727.024 C 509.512 727.037, 505.800 728.151, 502.500 729.500 M 703.579 728.824 C 700.872 729.723, 697.159 731.870, 695.329 733.597 C 692.503 736.262, 692 737.425, 692 741.295 C 692 749.664, 698.876 752.156, 708.713 747.350 L 712.500 745.500 712.788 736.250 C 713.070 727.172, 713.033 727.002, 710.788 727.096 C 709.529 727.148, 706.285 727.926, 703.579 728.824" stroke="none" fill="#255821" fill-rule="evenodd"/><path d="M 1 512 L 1 1023 512 1023 L 1023 1023 1023 512 L 1023 1 512 1 L 1 1 1 512 M 508.452 220.750 C 506.971 223.912, 501.520 233.574, 496.338 242.219 C 482.456 265.381, 481.583 267.552, 481.538 279 C 481.504 287.503, 481.805 289.121, 484.403 294.412 C 487.613 300.950, 495.691 310, 498.316 310 C 500.489 310, 500.439 309.247, 497.887 303.478 C 494.355 295.494, 495.385 291.171, 505.560 271.250 C 510.406 261.762, 514.625 254.007, 514.936 254.015 C 515.246 254.023, 518.507 259.086, 522.182 265.265 C 534.332 285.693, 534.854 288.762, 529.412 307.750 C 528.283 311.689, 531.382 310.347, 536.909 304.503 C 550.437 290.198, 551.531 273.518, 540.285 253 C 532.826 239.390, 514.935 215, 512.411 215 C 511.715 215, 509.933 217.588, 508.452 220.750 M 505.399 291.401 C 505.104 292.172, 506.580 295.197, 508.681 298.122 C 512.415 303.324, 512.500 303.637, 512.500 312.258 C 512.500 320.446, 512.640 321.054, 514.460 320.787 C 518.871 320.141, 520.063 306, 516.331 298.594 C 512.882 291.750, 506.801 287.749, 505.399 291.401 M 341 314.103 C 341 314.710, 342.989 317.418, 345.420 320.122 C 351.281 326.641, 353.583 331.735, 355.378 342.161 C 357.181 352.634, 359.425 357.293, 365.254 362.667 C 369.635 366.705, 381.295 373, 384.393 373 C 386.733 373, 386.424 369.299, 383.375 360.810 C 380.239 352.076, 375.829 343.095, 371.771 337.180 C 370.141 334.804, 369.003 332.664, 369.242 332.425 C 369.481 332.186, 372.357 334.604, 375.632 337.799 C 382.634 344.629, 389.333 354.488, 391.147 360.633 C 393.290 367.891, 396.013 365.941, 395.985 357.168 C 395.904 331.554, 376.301 313, 349.318 313 C 343.921 313, 341 313.387, 341 314.103 M 401.213 317.805 C 396.986 321.057, 395.014 325.172, 395.007 330.750 C 394.999 336.927, 397.058 337.945, 399.051 332.750 L 400.297 329.500 401.047 334.815 C 401.460 337.739, 402.049 340.382, 402.356 340.689 C 403.591 341.925, 406.175 339.825, 407.593 336.433 C 408.933 333.224, 408.929 332.266, 407.547 327.515 C 406.696 324.587, 406 320.799, 406 319.096 C 406 315.573, 404.602 315.196, 401.213 317.805 M 491.054 326.528 C 474.372 329.547, 463.817 334.532, 457.572 342.342 L 454.500 346.184 454.223 394.386 L 453.945 442.589 461.223 444.890 C 481.293 451.237, 499.645 466.037, 507.627 482.312 C 510.816 488.815, 513.219 489.680, 514.877 484.922 C 516.773 479.485, 524.850 468.355, 531.097 462.571 C 541.235 453.185, 556.885 445.260, 570.750 442.490 L 574 441.841 574 394.871 C 574 342.724, 574.306 345.219, 567.124 338.731 C 562.171 334.256, 559.396 332.808, 550.500 330.057 C 534.757 325.189, 507.421 323.566, 491.054 326.528 M 418.500 344.160 C 410.825 348.380, 404.089 358.926, 403.265 368.015 C 402.733 373.886, 405.030 381.166, 408.693 385.213 C 411.957 388.820, 412.636 387.424, 412.187 378.036 C 411.576 365.253, 412.848 363.465, 415.059 374 C 418.313 389.508, 420.151 391.398, 424.056 383.250 C 427.137 376.821, 427.141 370.058, 424.068 362.588 C 421.465 356.259, 421.070 352.704, 422.310 346.750 C 423.157 342.682, 422.277 342.084, 418.500 344.160 M 603.136 368.941 C 602.486 371.109, 600.615 375.430, 598.977 378.543 C 595.431 385.285, 595.160 390.433, 598.053 396.103 C 601.179 402.231, 603.112 401.088, 605.381 391.770 C 607.645 382.469, 609.544 382.390, 608.596 391.636 C 608.054 396.929, 608.198 398, 609.452 398 C 613.613 398, 616.629 383.415, 613.934 376.328 C 612.544 372.670, 606.808 365.071, 605.408 365.031 C 604.808 365.014, 603.785 366.774, 603.136 368.941 M 429.474 380.453 C 424.609 388.755, 424.047 395.323, 427.611 402.215 C 430.107 407.041, 432 405.783, 432 399.300 C 432 392.704, 432.892 393.197, 435.530 401.250 C 438.252 409.557, 441.799 408.990, 443.467 399.982 C 443.990 397.157, 443.368 394.990, 440.172 388.500 C 438.006 384.100, 435.926 379.488, 435.549 378.250 C 434.495 374.781, 432.341 375.562, 429.474 380.453 M 371.198 380.679 C 366.609 382.303, 355 392.285, 355 394.608 C 355 395.507, 356.151 396.008, 358.250 396.024 C 360.038 396.037, 364.200 397.193, 367.500 398.593 C 379.756 403.794, 381.498 404.212, 385.922 403.021 C 390.272 401.850, 397 396.672, 397 394.496 C 397 393.178, 391.506 391.636, 382.731 390.493 C 375.107 389.500, 378.312 388, 388.059 388 C 397.512 388, 398.990 387.111, 395.213 383.693 C 390.112 379.076, 379.497 377.744, 371.198 380.679 M 635.500 383.802 C 629.335 385.944, 621.830 391.026, 619.034 394.952 C 613.656 402.505, 609.089 417.047, 612.122 416.961 C 612.880 416.940, 614.940 414.963, 616.701 412.568 C 618.461 410.174, 621.878 406.595, 624.294 404.615 C 628.390 401.259, 639.435 395.041, 641.351 395.013 C 641.820 395.006, 638.725 398.247, 634.475 402.216 C 626.719 409.460, 617 422.021, 617 424.802 C 617 427.462, 630.215 425.661, 637.686 421.983 C 644.183 418.784, 647.246 415.386, 651.906 406.205 C 654.963 400.184, 660.417 394.443, 666.130 391.234 C 668.807 389.730, 670.998 387.979, 670.999 387.342 C 671 386.705, 668.213 385.242, 664.806 384.092 C 656.838 381.401, 642.811 381.262, 635.500 383.802 M 389.500 411.851 C 382.932 414.969, 371 424.402, 371 426.475 C 371 427.191, 372.688 428.092, 374.750 428.477 C 376.813 428.862, 383.063 431.162, 388.641 433.589 C 403.017 439.843, 410.523 439.354, 419.750 431.566 C 425.904 426.371, 423.949 425.425, 404.783 424.321 C 398.888 423.982, 394.277 423.361, 394.536 422.942 C 395.493 421.394, 409.574 419.755, 416.723 420.359 C 425.168 421.073, 426.234 419.806, 420.722 415.601 C 411.105 408.266, 399.887 406.919, 389.500 411.851 M 583 414.066 C 583 414.652, 583.479 416.026, 584.064 417.120 C 584.650 418.214, 585.571 421.853, 586.111 425.207 C 586.651 428.561, 587.551 432.160, 588.110 433.206 C 590.368 437.424, 600 440.970, 600 437.583 C 600 436.804, 599.089 434.040, 597.975 431.441 C 595.294 425.187, 596.222 424.599, 599.710 430.342 C 602.137 434.339, 605.049 436.500, 604.976 434.250 C 604.876 431.197, 602.565 424.198, 600.871 421.818 C 596.996 416.378, 583 410.306, 583 414.066 M 431 416.014 C 431 416.572, 432.964 419.439, 435.364 422.386 C 437.764 425.333, 440.772 429.602, 442.048 431.872 C 444.298 435.874, 447 437.393, 447 434.655 C 447 432.944, 439.614 421.372, 436.210 417.750 C 433.617 414.991, 431 414.119, 431 416.014 M 605 422.500 C 605 425.833, 605.389 427, 606.500 427 C 607.611 427, 608 425.833, 608 422.500 C 608 419.167, 607.611 418, 606.500 418 C 605.389 418, 605 419.167, 605 422.500 M 424.500 433.662 C 420.643 435.695, 417 439.023, 417 440.514 C 417 441.171, 420.038 442.223, 423.955 442.923 C 430.225 444.043, 431.211 443.988, 433.955 442.367 C 438.292 439.806, 437.873 438, 432.941 438 C 430.490 438, 429.127 437.604, 429.500 437 C 429.840 436.450, 431.666 436, 433.559 436 C 435.834 436, 437 435.528, 437 434.607 C 437 431.661, 429.387 431.085, 424.500 433.662 M 605.993 435.250 C 605.990 437.038, 606.518 441.988, 607.166 446.250 C 608.018 451.847, 608.752 454, 609.809 454 C 610.982 454, 611.138 453.059, 610.598 449.250 C 610.227 446.637, 609.651 441.688, 609.317 438.250 C 608.901 433.956, 608.287 432, 607.355 432 C 606.494 432, 605.998 433.185, 605.993 435.250 M 615.589 450.403 C 614.779 467.060, 615.416 469.494, 622.333 476.207 C 627.205 480.935, 629.010 481.083, 628.969 476.750 C 628.930 472.673, 627.206 459.225, 626.394 456.666 C 626.031 455.522, 626.185 454.996, 626.777 455.362 C 628.371 456.348, 631.941 464.625, 633.098 470.021 C 634.287 475.565, 636.435 476.617, 638.025 472.435 C 639.487 468.589, 639.199 458.413, 637.514 454.380 C 634.395 446.915, 625.158 438.082, 618.802 436.486 L 616.296 435.858 615.589 450.403 M 424.250 448.706 C 421.354 449.264, 421.407 451.038, 424.456 455.531 C 428.197 461.043, 430.692 468.627, 433.564 483.221 C 436.648 498.891, 440.143 506.960, 446.810 513.805 C 454.860 522.070, 474.907 530.141, 491.129 531.649 C 497.487 532.240, 498 532.142, 498 530.342 C 498 528.273, 490.312 514.763, 483.009 504 C 480.583 500.425, 473.958 492.855, 468.286 487.178 C 457.187 476.070, 457.544 475.162, 470 482.823 C 483.754 491.282, 498.534 508.108, 504.191 521.750 C 507.623 530.026, 509 528.712, 509 517.160 C 509 497.390, 503.710 484.707, 489.490 470.378 C 481.765 462.596, 479.040 460.578, 470.926 456.630 C 459.235 450.943, 446.753 447.999, 435 448.158 C 430.325 448.221, 425.488 448.467, 424.250 448.706 M 573 449.502 C 555.913 452.957, 545.276 458.590, 533.471 470.438 C 523.025 480.922, 518.128 489.612, 515.567 502.208 C 513.552 512.120, 513.434 526, 515.364 526 C 516.114 526, 517.460 524.087, 518.355 521.750 C 524.027 506.926, 542.295 487.866, 558.750 479.603 C 565.135 476.396, 565.435 477.317, 559.514 481.954 C 548.004 490.968, 525 523.406, 525 530.623 C 525 534.711, 551.876 529.328, 564.473 522.716 C 567.788 520.977, 573.446 516.616, 577.048 513.027 C 584.503 505.595, 587.002 500.249, 589.616 486.141 C 592.191 472.242, 594.897 462.974, 598.176 456.820 C 602.616 448.491, 602.125 447.981, 589.781 448.094 C 584.127 448.146, 576.575 448.779, 573 449.502 M 609 457 C 609 458.111, 609.667 459, 610.500 459 C 611.333 459, 612 458.111, 612 457 C 612 455.889, 611.333 455, 610.500 455 C 609.667 455, 609 455.889, 609 457 M 660.668 469.579 C 659.660 470.962, 655.149 474.473, 650.642 477.380 C 640.212 484.108, 638.542 486.536, 638.518 495 C 638.502 500.804, 638.720 501.531, 640.556 501.794 C 642.575 502.083, 651.184 493.980, 655.211 488 C 656.737 485.735, 656.899 485.688, 656.938 487.500 C 656.991 489.931, 652.193 498.460, 648.612 502.302 C 644.488 506.725, 645.211 507.997, 650.685 505.944 C 660.450 502.281, 666.008 494.179, 666.767 482.500 C 667.256 474.968, 665.678 466.980, 663.711 467.031 C 663.045 467.049, 661.675 468.195, 660.668 469.579 M 605 471.627 C 605 471.972, 606.459 475.218, 608.242 478.840 C 611.084 484.613, 611.470 486.355, 611.371 492.963 C 611.307 497.245, 610.507 502.659, 609.520 505.500 C 598.930 535.965, 537.100 579.061, 480.391 595.505 C 438.781 607.571, 397.441 606.481, 389.634 593.113 C 386.999 588.602, 388.580 583.564, 394.277 578.312 C 397.998 574.883, 411.782 568, 414.930 568 C 415.519 568, 416 567.325, 416 566.500 C 416 564.608, 415.119 564.622, 408.154 566.629 C 395.666 570.227, 383.292 578.722, 380.352 585.718 C 377.297 592.987, 379.076 599.125, 386.065 605.440 C 395.391 613.865, 408.068 617.344, 429.500 617.361 C 450.353 617.377, 466.401 614.791, 490.366 607.551 C 498.140 605.202, 505.288 602.945, 506.250 602.533 C 507.722 601.905, 508 602.331, 508 605.212 C 508 619.171, 519.315 631.321, 538.600 638.069 C 553.192 643.174, 581 646.978, 581 643.869 C 581 642.833, 578.601 642.114, 572.250 641.244 C 559.116 639.446, 548.512 636.416, 538.500 631.601 C 519.583 622.503, 512.898 611.645, 519.406 600.588 C 521.914 596.327, 523.763 595.061, 543 584.423 C 571.647 568.581, 598.491 546.618, 611.032 528.760 C 623.732 510.676, 623.676 489.090, 610.890 474.528 C 608.155 471.413, 605 469.859, 605 471.627 M 598 493.892 C 598 494.382, 596.044 496.970, 593.654 499.642 C 587.054 507.019, 585.900 510.295, 587.630 516.750 C 588.606 520.391, 590.668 519.367, 594.178 513.500 C 595.987 510.475, 597.781 508, 598.164 508 C 598.963 508, 597.836 512.211, 595.956 516.254 C 594.485 519.417, 595.036 520.441, 597.747 519.580 C 600.678 518.650, 604 511.856, 604 506.792 C 604 501.205, 601.267 493, 599.406 493 C 598.633 493, 598 493.401, 598 493.892 M 669.744 502.396 C 668.778 503.129, 665.178 504.308, 661.744 505.016 C 652.304 506.961, 648.102 508.901, 646.462 512.074 C 643.260 518.265, 645.264 519.298, 654.917 516.432 C 657.821 515.570, 660.429 515.095, 660.711 515.378 C 661.457 516.124, 655.064 519.827, 651.790 520.546 C 648.123 521.352, 648.092 524.002, 651.750 523.994 C 662.466 523.973, 670.964 516.250, 673.478 504.250 C 674.229 500.665, 672.896 500.004, 669.744 502.396 M 641 525.293 C 641 526.187, 642.665 527.183, 645.250 527.835 C 647.587 528.425, 650.400 529.603, 651.500 530.452 C 653.372 531.898, 653.227 531.957, 649.250 531.371 C 645.758 530.856, 645 531.030, 645 532.347 C 645 535.376, 650.390 537.118, 657.504 536.389 C 665.001 535.621, 665.678 534.382, 660.681 530.571 C 656.947 527.722, 651.513 525.600, 645.237 524.540 C 641.852 523.968, 641 524.120, 641 525.293 M 565 530.672 C 550.196 537.424, 531.036 540.443, 507.686 539.706 C 489.147 539.120, 481.192 537.772, 467.138 532.837 C 462.387 531.169, 457.488 529.571, 456.250 529.285 L 454 528.767 454 560.383 C 454 588.296, 454.182 592, 455.553 592 C 458.040 592, 470.638 589.063, 482 585.834 C 508.999 578.162, 543.692 559.934, 568.250 540.517 C 573.528 536.344, 574 535.643, 574 531.985 C 574 527.179, 572.984 527.031, 565 530.672 M 620.942 534.906 C 616.412 536.355, 613.592 538.145, 609.250 542.325 C 604.504 546.894, 603.634 549.621, 607.250 548.594 C 615.476 546.258, 622.773 544.943, 625.882 545.238 C 627.902 545.429, 628.837 545.837, 628 546.161 C 627.175 546.481, 622.225 548.305, 617 550.214 C 611.184 552.340, 607.382 554.288, 607.197 555.240 C 606.710 557.733, 614.866 560.342, 621.443 559.796 C 626.258 559.397, 628.248 558.453, 637.524 552.170 C 643.346 548.227, 648.535 545, 649.055 545 C 651.220 545, 649.766 541.826, 646.750 539.969 C 640.259 535.973, 626.217 533.218, 620.942 534.906 M 589.500 560.392 C 587.300 561.085, 584.448 562.217, 583.162 562.908 C 579.499 564.877, 573 571.086, 573 572.616 C 573 573.377, 573.113 574, 573.250 574 C 573.388 574, 576.651 573.333, 580.500 572.517 C 588.505 570.822, 601.582 570.514, 602.500 572 C 602.856 572.576, 601.928 572.999, 600.309 572.997 C 598.764 572.995, 592.438 574.418, 586.250 576.159 C 572.656 579.984, 571.908 581.339, 581.112 585.470 C 586.276 587.787, 588.266 588.154, 593.934 587.834 C 599.831 587.501, 601.722 586.834, 609.571 582.324 C 614.482 579.502, 620.413 576.629, 622.750 575.938 C 625.087 575.248, 627 574.120, 627 573.431 C 627 570.334, 615.877 563.522, 606.068 560.612 C 599.688 558.719, 595.016 558.657, 589.500 560.392 M 429.168 569.146 C 424.297 571.557, 421.094 575.865, 418.038 584.114 C 416.894 587.202, 415.068 590.534, 413.979 591.519 C 412.891 592.504, 412 593.895, 412 594.610 C 412 597.733, 426.149 597.063, 432.725 593.628 C 436.641 591.582, 440.629 587.134, 442.447 582.782 C 444.140 578.728, 444.544 572, 443.094 572 C 442.595 572, 439.146 575.151, 435.429 579.001 C 425.752 589.025, 425.617 586.935, 435.132 574.408 C 437.260 571.607, 439 568.794, 439 568.158 C 439 566.304, 433.868 566.820, 429.168 569.146 M 554 589.385 C 554 590.273, 554.788 590.995, 555.750 590.990 C 560.071 590.965, 570.600 595.720, 574.926 599.649 C 579.502 603.805, 580.154 606.622, 575.842 603.602 C 574.584 602.721, 572.980 602, 572.277 602 C 569.475 602, 571.299 605.446, 577 610.922 C 580.300 614.091, 583 617.205, 583 617.842 C 583 618.479, 583.675 619, 584.500 619 C 586.908 619, 586.493 608.649, 583.867 603.226 C 580.332 595.924, 570.273 589.803, 559.620 588.472 C 554.823 587.872, 554 588.006, 554 589.385 M 539.750 593.708 C 536.426 594.222, 535.748 598, 538.980 598 C 541.802 598, 549 601.028, 549 602.216 C 549 602.765, 548.355 602.967, 547.568 602.664 C 546.780 602.362, 543.405 601.806, 540.068 601.428 C 535.110 600.867, 534 601.008, 534 602.197 C 534 604.523, 538.485 608.094, 542.562 609.014 C 547.031 610.022, 562 607.363, 562 605.561 C 562 603.961, 555.138 597.537, 551.500 595.731 C 547.823 593.905, 543.401 593.143, 539.750 593.708 M 491.500 614.659 C 482.914 619.177, 479.573 625.877, 480.155 637.406 C 480.549 645.199, 481.971 648.264, 484.365 646.478 C 485.086 645.940, 487.596 644.150, 489.944 642.500 C 501.919 634.082, 504.981 629.657, 504.994 620.750 C 504.999 617.665, 504.645 617, 503 617 C 501.900 617, 500.979 617.337, 500.954 617.750 C 500.929 618.163, 498.455 621.200, 495.456 624.500 C 488.978 631.629, 488.210 629.909, 494 621.238 C 496.200 617.943, 498 614.742, 498 614.124 C 498 612.550, 495.046 612.793, 491.500 614.659 M 459 711.875 C 459 732.706, 458.719 751.156, 458.375 752.875 L 457.750 756 463.375 756 L 469 756 469 715 L 469 674 464 674 L 459 674 459 711.875 M 567.456 675.253 C 567.192 675.942, 567.094 693.829, 567.238 715.003 L 567.500 753.500 573 755.415 C 576.634 756.681, 581.383 757.357, 587 757.409 C 594.363 757.476, 596.169 757.131, 600.500 754.832 C 606.796 751.491, 611.325 746.796, 613.920 740.921 C 620.025 727.097, 615.932 709.616, 604.876 702.300 C 598.917 698.356, 590.493 698.337, 583.822 702.254 C 581.249 703.764, 578.886 705, 578.572 705 C 578.257 705, 578 698.025, 578 689.500 L 578 674 572.969 674 C 569.860 674, 567.754 674.479, 567.456 675.253 M 190.735 683.250 C 190.509 687.788, 189.973 692.513, 189.545 693.750 C 188.914 695.575, 189.131 696, 190.696 696 C 194.916 696, 201.933 684.960, 201.978 678.250 L 202 675 196.573 675 L 191.147 675 190.735 683.250 M 864.284 676.250 C 862.065 679.138, 856 689.850, 856 690.881 C 856 693.596, 860.373 691.526, 866.837 685.750 C 873.855 679.480, 875.364 676.737, 872.418 675.607 C 869.745 674.581, 865.296 674.933, 864.284 676.250 M 255 680 C 252.593 682.407, 252.499 683.840, 254.557 686.777 C 257.457 690.919, 266 688.958, 266 684.151 C 266 678.665, 258.983 676.017, 255 680 M 169.810 715.132 C 170.129 751.310, 169.331 764.392, 166.436 770.494 C 164.166 775.276, 161.871 775.679, 155.435 772.423 C 152.443 770.909, 149.861 769.857, 149.695 770.085 C 147.997 772.427, 146 776.132, 146 776.939 C 146 778.607, 151.648 781, 155.584 781 C 169.339 781, 178.880 770.488, 179.635 754.500 C 179.816 750.650, 180.141 732.313, 180.356 713.750 L 180.748 680 175.124 679.999 L 169.500 679.999 169.810 715.132 M 808.322 687.487 C 806.737 688.597, 806.023 690.497, 805.502 694.987 C 804.887 700.285, 804.544 701, 802.624 701 C 799.583 701, 796 703.735, 796 706.057 C 796 707.685, 796.709 708, 800.377 708 L 804.754 708 804.627 728.415 C 804.483 751.505, 804.790 752.595, 812.495 756.419 C 815.898 758.107, 817.012 758.201, 821.793 757.198 C 827.957 755.905, 830 754.581, 830 751.878 C 830 750.252, 829.204 750, 824.073 750 C 818.860 750, 817.895 749.682, 816.073 747.365 C 814.147 744.917, 814 743.430, 814 726.365 L 814 708 821.500 708 L 829 708 829 704.500 L 829 701 821.500 701 L 814 701 814 693.500 C 814 686.980, 813.768 686, 812.223 686 C 811.245 686, 809.490 686.669, 808.322 687.487 M 210.667 700.163 C 205.996 701.473, 199 707.878, 199 710.845 C 199 713.599, 199.852 713.554, 205.596 710.500 C 212.138 707.021, 220.092 707.001, 223.545 710.455 C 225.335 712.244, 226 713.995, 226 716.916 C 226 720.795, 225.865 720.957, 221.750 721.995 C 213.618 724.046, 205.474 727.289, 201.337 730.124 C 194.311 734.938, 192.060 744.863, 196.468 751.592 C 201.039 758.568, 210.003 759.380, 220.250 753.748 L 226.673 750.217 229.379 753.609 C 231.587 756.376, 232.768 756.997, 235.793 756.985 C 240.746 756.966, 244.425 754.976, 244.837 752.095 C 245.130 750.043, 244.858 749.819, 242.727 750.354 C 240.976 750.793, 239.743 750.373, 238.390 748.878 C 236.683 746.990, 236.500 745.033, 236.500 728.644 C 236.500 708.337, 235.733 705.500, 229.209 701.690 C 225.351 699.437, 216.004 698.667, 210.667 700.163 M 302.933 699.950 C 301.522 700.379, 298.449 701.998, 296.106 703.548 C 292.573 705.887, 291.691 706.123, 290.938 704.934 C 290.439 704.145, 290.024 702.938, 290.015 702.250 C 290.006 701.461, 288.525 701, 286 701 L 282 701 282 728.500 L 282 756 286.980 756 L 291.961 756 292.230 734.357 L 292.500 712.714 295.080 710.789 C 299.195 707.718, 305.391 706.719, 309.549 708.456 C 315.294 710.857, 316 713.921, 316 736.468 L 316 756 321.066 756 L 326.133 756 325.994 735.250 C 325.918 723.837, 325.888 713.989, 325.928 713.365 C 325.968 712.741, 327.211 711.436, 328.691 710.467 C 334.978 706.347, 343.194 706.888, 346.955 711.669 C 348.867 714.100, 349 715.629, 349 735.135 L 349 756 354.611 756 L 360.221 756 359.532 734.250 C 358.916 714.816, 358.612 712.021, 356.671 708 C 351.725 697.750, 338.021 696.154, 328.072 704.670 L 324.160 708.019 322.116 705.420 C 317.935 700.106, 309.939 697.826, 302.933 699.950 M 390.994 699.934 C 379.625 703.392, 372.189 713.620, 371.223 727.127 C 369.771 747.418, 386.131 762.143, 404.432 757.019 C 409.695 755.546, 417 749.676, 417 746.922 C 417 744.498, 416.347 744.517, 410.485 747.110 C 397.358 752.916, 382.111 744.420, 382.022 731.250 L 382 728 400.500 728 L 419 728 418.978 721.750 C 418.942 711.620, 414.257 704.093, 405.782 700.553 C 401.879 698.923, 395.233 698.645, 390.994 699.934 M 497.667 700.163 C 492.534 701.602, 486 707.865, 486 711.345 C 486 714.061, 488.242 715.036, 489.564 712.896 C 490.881 710.765, 498.548 708.044, 503.295 708.022 C 509.591 707.993, 513 711.085, 513 716.823 L 513 720.736 506.750 722.481 C 491.633 726.702, 482.845 732.979, 481.420 740.575 C 479.951 748.407, 484.945 756.017, 492.482 757.431 C 496.906 758.261, 505.227 756.014, 510.181 752.652 L 513.707 750.259 516.396 753.630 C 518.625 756.424, 519.754 757, 522.996 757 C 525.146 757, 528.052 756.478, 529.453 755.839 C 532.751 754.337, 532.891 751, 529.655 751 C 524.744 751, 524.206 748.963, 523.840 729 C 523.461 708.353, 522.650 705.452, 516.209 701.690 C 512.351 699.437, 503.004 698.667, 497.667 700.163 M 643.137 700.369 C 628.294 705.741, 620.893 726.661, 628.082 742.921 C 632.476 752.856, 639.696 757.442, 651 757.477 C 657.415 757.497, 659.180 757.100, 663.204 754.735 C 667.946 751.948, 671 748.634, 671 746.277 C 671 744.470, 669.284 744.684, 664.260 747.116 C 651.946 753.077, 636 744.288, 636 731.540 L 636 728 655.129 728 L 674.258 728 673.580 722.750 C 672.480 714.223, 671.237 710.727, 667.845 706.621 C 662.189 699.773, 651.946 697.181, 643.137 700.369 M 699.500 699.935 C 692.452 701.651, 686 707.003, 686 711.135 C 686 713.572, 686.855 713.493, 692.813 710.500 C 703.489 705.138, 713 708.161, 713 716.916 C 713 720.792, 712.861 720.959, 708.750 722.018 C 696.048 725.290, 687.094 729.655, 683.909 734.127 C 680.496 738.921, 680.165 746.523, 683.174 751 C 688.344 758.692, 696.700 759.681, 707.688 753.901 L 713.334 750.931 716.465 753.966 C 719.892 757.288, 724.740 757.987, 729.453 755.839 C 733.185 754.139, 732.788 751.203, 728.773 750.813 C 723.666 750.317, 723.034 747.876, 722.998 728.500 C 722.969 712.789, 722.797 711.197, 720.729 707.500 C 716.941 700.727, 708.541 697.734, 699.500 699.935 M 855 699.936 C 847.184 701.513, 840.534 707.324, 836.675 715.949 C 834.099 721.707, 833.956 734.370, 836.393 740.931 C 840.138 751.012, 847.815 756.894, 858.326 757.738 C 863.354 758.142, 865.594 757.800, 869.809 755.987 C 875.057 753.729, 880 749.091, 880 746.423 C 880 744.538, 879.047 744.624, 873.859 746.978 C 866.261 750.426, 856.930 749.079, 851.166 743.702 C 847.920 740.674, 845 734.689, 845 731.062 L 845 728.044 863.750 727.772 L 882.500 727.500 882.192 721.500 C 881.616 710.285, 875.354 702.100, 865.779 700.046 C 860.455 698.904, 860.131 698.901, 855 699.936 M 254 728.500 L 254 756 259 756 L 264 756 264 728.500 L 264 701 259 701 L 254 701 254 728.500 M 741.199 724.429 C 741.480 746.275, 741.639 748.045, 743.562 750.618 C 747.571 755.982, 750.643 757.501, 757.443 757.483 C 762.795 757.468, 764.518 756.977, 769.013 754.182 C 774.608 750.705, 777 750.641, 777 753.969 C 777 755.710, 777.643 756, 781.500 756 L 786 756 786 728.500 L 786 701 781.020 701 L 776.039 701 775.770 722.719 L 775.500 744.438 771.519 746.670 C 763.396 751.225, 754.788 750.219, 752.139 744.405 C 751.406 742.796, 751 734.618, 751 721.453 L 751 701 745.949 701 L 740.897 701 741.199 724.429 M 391.244 706.110 C 387.390 707.235, 383.200 712.992, 382.329 718.360 L 381.738 722 395.497 722 L 409.256 722 408.591 717.841 C 407.040 708.147, 400.175 703.504, 391.244 706.110 M 644 706.752 C 640.274 708.613, 636 715.537, 636 719.712 C 636 721.979, 636.121 722, 649 722 L 662 722 662 718.401 C 662 713.195, 659.376 708.406, 655.522 706.577 C 651.236 704.543, 648.332 704.587, 644 706.752 M 850.941 708.703 C 847.607 711.509, 845 716.452, 845 719.968 C 845 721.910, 845.596 722, 858.500 722 C 873.544 722, 873.041 722.290, 870.965 714.814 C 868.591 706.267, 857.764 702.962, 850.941 708.703 M 581.250 709.989 L 578 711.971 578 729.462 L 578 746.954 580.500 748.592 C 581.875 749.493, 585.813 750.432, 589.250 750.679 C 597.703 751.285, 601.030 749.210, 603.900 741.538 C 608.330 729.697, 605.423 714.667, 597.805 710.022 C 593.403 707.339, 585.622 707.323, 581.250 709.989 M 215.724 729.400 C 208.890 732.237, 207.365 733.393, 205.371 737.250 C 203.434 740.995, 204.389 745.374, 207.712 747.988 C 210.991 750.567, 214.885 750.535, 221.065 747.877 L 226 745.754 226.150 737.877 C 226.233 733.545, 226.345 729.438, 226.400 728.750 C 226.571 726.606, 221.746 726.900, 215.724 729.400 M 502.500 729.500 C 495.012 732.560, 492.012 736.041, 492.005 741.677 C 492.001 745.003, 492.538 746.278, 494.635 747.927 C 497.989 750.566, 501.847 750.551, 508.065 747.877 L 513 745.754 513 736.377 C 513 727.312, 512.925 727.001, 510.750 727.024 C 509.512 727.037, 505.800 728.151, 502.500 729.500 M 704 728.722 C 695.228 731.770, 691.800 735.455, 691.800 741.837 C 691.800 744.527, 692.499 746.033, 694.581 747.823 C 697.806 750.598, 702.378 750.445, 708.713 747.350 L 712.500 745.500 712.788 736.250 C 713.070 727.176, 713.032 727.002, 710.788 727.079 C 709.529 727.122, 706.475 727.862, 704 728.722" stroke="none" fill="#fefefe" fill-rule="evenodd"/></svg>