<svg xmlns="http://www.w3.org/2000/svg" width="1024" height="1024" viewBox="0 0 1024 1024" version="1.1"><path d="M 1 512 L 1 1023 512 1023 L 1023 1023 1023 512 L 1023 1 512 1 L 1 1 1 512 M 485.057 247.250 C 483.588 254.879, 481.676 260.749, 478.854 266.300 C 475.956 272, 468.961 282.316, 467.328 283.300 C 466.598 283.740, 466 284.704, 466 285.443 C 466 286.182, 465.325 287.045, 464.500 287.362 C 463.675 287.678, 463 288.400, 463 288.966 C 463 289.532, 460.936 292.799, 458.412 296.226 C 455.889 299.654, 452.403 305.392, 450.664 308.979 C 447.656 315.187, 447.504 316.075, 447.502 327.500 C 447.499 342.637, 449.588 348.600, 457.935 357.299 C 460.996 360.488, 463.649 363.522, 463.830 364.040 C 464.012 364.558, 465.700 365.713, 467.580 366.605 C 469.461 367.498, 471 368.627, 471 369.114 C 471 369.601, 471.675 370, 472.500 370 C 473.325 370, 474 369.325, 474 368.500 C 474 367.675, 473.550 367, 473 367 C 472.450 367, 472 366.185, 472 365.189 C 472 364.192, 471.073 362.382, 469.939 361.165 C 467.228 358.255, 464.875 352.632, 463.902 346.737 C 462.536 338.455, 467.625 324.355, 474.232 318.119 C 475.754 316.682, 477 314.953, 477 314.276 C 477 313.600, 478.125 312.309, 479.500 311.408 C 480.875 310.507, 482 309.354, 482 308.844 C 482 307.991, 485.769 302.150, 487.062 301 C 487.552 300.564, 489.569 295.571, 493.245 285.694 C 494.547 282.194, 495.061 282.719, 499.952 292.547 C 505.553 303.805, 509.890 311.211, 512.099 313.289 C 513.145 314.273, 514 315.735, 514 316.539 C 514 317.343, 514.376 318, 514.836 318 C 515.993 318, 520.647 327.448, 522.471 333.500 C 525.436 343.335, 523.600 354.844, 518.048 361.229 C 516.782 362.686, 515.227 364.918, 514.593 366.189 C 513.960 367.460, 512.217 369.087, 510.721 369.805 C 509.224 370.522, 508 371.535, 508 372.055 C 508 372.575, 507.325 373, 506.500 373 C 505.675 373, 505 373.675, 505 374.500 C 505 376.021, 507.555 376.626, 508.167 375.250 C 508.350 374.837, 511.018 373.244, 514.096 371.708 C 522.133 367.698, 532.989 356.213, 536.032 348.500 C 537.334 345.200, 538.760 342.072, 539.200 341.550 C 539.640 341.027, 540 335.655, 540 329.610 C 540 318.482, 538.726 308.968, 536.505 303.500 C 532.531 293.720, 527.197 283.035, 524.785 280.022 C 523.253 278.109, 522 276.148, 522 275.663 C 522 275.178, 521.144 273.818, 520.098 272.641 C 519.053 271.463, 516.353 268.425, 514.098 265.888 C 511.844 263.352, 510 261.043, 510 260.759 C 510 259.950, 497.109 247.005, 496.258 246.959 C 495.841 246.937, 493.942 245.587, 492.038 243.959 C 490.134 242.332, 488.055 241, 487.418 241 C 486.781 241, 485.719 243.813, 485.057 247.250 M 491.296 307.750 C 490.334 309.262, 489.299 310.725, 488.998 311 C 487.857 312.039, 476.771 336.440, 475.427 340.870 C 473.319 347.816, 473.696 355.606, 476.449 362 C 477.752 365.025, 479.534 367.645, 480.409 367.823 C 481.284 368.001, 482 367.808, 482 367.394 C 482 366.336, 479.918 359.928, 478.722 357.305 C 477.459 354.536, 478.357 348.825, 480.795 344.125 C 485.558 334.940, 493.248 320.467, 493.525 320.167 C 493.694 319.984, 495.371 322.240, 497.252 325.180 C 499.133 328.120, 502.522 332.970, 504.783 335.957 C 507.159 339.097, 509.391 343.463, 510.073 346.305 C 511.342 351.595, 510.684 361.272, 509.018 361.827 C 507.425 362.358, 507.826 365, 509.500 365 C 510.325 365, 511 364.325, 511 363.500 C 511 362.675, 511.433 362, 511.961 362 C 513.711 362, 515.229 353.610, 514.766 346.500 C 514.417 341.146, 513.563 338.090, 511.132 333.500 C 506.393 324.553, 503.991 320.689, 502 318.808 C 501.014 317.878, 499.151 314.390, 497.859 311.058 C 496.567 307.726, 494.956 305, 494.278 305 C 493.601 305, 492.259 306.238, 491.296 307.750 M 378 349.897 C 378 350.547, 378.841 352.749, 379.868 354.790 C 384.679 364.345, 387.787 376.173, 392.045 401.135 C 395.688 422.488, 402.271 438.015, 412.268 448.831 C 415.658 452.499, 418.897 455.671, 419.466 455.880 C 420.035 456.090, 421.175 456.837, 422 457.540 C 424.357 459.551, 433.996 464.633, 439.763 466.906 C 447.651 470.016, 459.323 472.907, 470.500 474.520 C 489.582 477.274, 493.668 476.022, 483.497 470.535 C 480.473 468.904, 478 467.217, 478 466.785 C 478 466.353, 477.406 466, 476.680 466 C 475.954 466, 473.848 464.650, 472 463 C 470.152 461.350, 468.084 460, 467.404 460 C 466.724 460, 464.742 458.200, 463 456 C 461.258 453.800, 459.332 452, 458.721 452 C 457.178 452, 452 446.900, 452 445.381 C 452 444.696, 450.650 443.175, 449 442 C 447.350 440.825, 445.992 439.332, 445.983 438.682 C 445.973 438.032, 444.863 436.454, 443.515 435.176 C 440.073 431.912, 433.696 418.904, 434.932 417.668 C 435.938 416.662, 445 419.515, 445 420.839 C 445 421.209, 446.380 422.123, 448.067 422.869 C 449.753 423.616, 451.891 425.028, 452.817 426.006 C 454.693 427.990, 461.526 432, 463.030 432 C 465.037 432, 463.901 428.913, 461.567 428.026 C 460.229 427.517, 458.119 425.728, 456.879 424.050 C 455.639 422.373, 454.093 421, 453.445 421 C 450.830 421, 437.274 405.271, 433.657 398.041 C 428.308 387.350, 428.840 385.229, 435.297 391.500 C 437.279 393.425, 439.125 395, 439.399 395 C 439.673 395, 441.111 396.125, 442.595 397.500 C 444.078 398.875, 445.810 400, 446.444 400 C 447.078 400, 449.150 401.561, 451.048 403.468 C 452.947 405.376, 455.047 406.951, 455.716 406.968 C 456.385 406.986, 460.051 410.150, 463.863 414 C 467.675 417.850, 471.290 421, 471.897 421 C 472.504 421, 473 421.528, 473 422.172 C 473 422.817, 475.475 425.761, 478.500 428.715 C 481.525 431.668, 484 434.520, 484 435.051 C 484 435.582, 485.250 437.742, 486.777 439.851 C 488.304 441.959, 490.406 445.573, 491.447 447.883 C 492.680 450.616, 493.892 451.976, 494.920 451.780 C 496.153 451.546, 496.632 449.617, 497.101 442.990 C 497.431 438.320, 497.319 434.072, 496.851 433.550 C 496.383 433.028, 496 430.912, 496 428.849 C 496 422.388, 492.214 410.394, 487.055 400.513 C 484.878 396.342, 471.881 381.245, 468.971 379.506 C 468.044 378.953, 465.310 376.981, 462.893 375.124 C 457.161 370.720, 433.241 358.986, 424.139 356.113 C 408.436 351.157, 378 347.057, 378 349.897 M 571 351.390 C 560.933 355.611, 534.567 369.174, 529.748 372.611 C 527.134 374.475, 524.532 376, 523.966 376 C 523.400 376, 522.664 376.713, 522.330 377.584 C 521.995 378.455, 520.969 379.467, 520.049 379.834 C 517.262 380.944, 508.142 391.720, 505.834 396.629 C 504.092 400.336, 503.896 401.604, 504.834 403.106 C 505.475 404.133, 506 405.660, 506 406.500 C 506 407.340, 507.846 413.534, 510.103 420.264 C 513.627 430.772, 514.227 433.806, 514.353 441.748 C 514.449 447.768, 514.887 450.997, 515.610 450.998 C 516.220 450.999, 519.820 446.387, 523.610 440.750 C 527.399 435.113, 530.725 430.275, 531 430 C 531.275 429.725, 532.400 427.734, 533.500 425.575 C 534.600 423.416, 537.395 418.764, 539.711 415.237 C 542.027 411.709, 544.181 408.004, 544.499 407.002 C 545.401 404.162, 547.870 402.470, 549.188 403.788 C 551.567 406.167, 546.645 427.802, 541.311 438.414 C 538.047 444.910, 530.279 456.109, 527.861 457.807 C 526.837 458.525, 526 459.728, 526 460.479 C 526 461.230, 524.200 463.385, 522 465.268 C 519.800 467.151, 518 469.156, 518 469.723 C 518 470.291, 517.325 471.315, 516.500 472 C 514.564 473.607, 514.566 476, 516.504 476 C 518.761 476, 535.666 467.700, 542.500 463.237 C 545.800 461.081, 550.816 457.221, 553.647 454.659 C 556.478 452.096, 559.304 450, 559.928 450 C 560.552 450, 561.350 449.212, 561.700 448.250 C 562.051 447.288, 563.617 445.016, 565.180 443.202 C 568.192 439.708, 574.665 427.533, 576.187 422.500 C 579.162 412.665, 579.997 402.526, 579.999 376.250 C 580 345.220, 580.754 347.301, 571 351.390 M 494 366.566 C 494 369.919, 492.307 373, 490.465 373 C 488.543 373, 488.571 375.621, 490.500 376.362 C 491.515 376.751, 492 378.343, 492 381.285 C 492 388.508, 494.419 400.814, 498.136 412.500 C 504.152 431.415, 504.476 433.655, 504.362 455.500 C 504.291 469.115, 503.817 477.096, 502.879 480.500 C 501.536 485.368, 501.394 485.506, 497.500 485.737 C 488.281 486.283, 471.113 488.178, 466 489.213 C 457.862 490.860, 448.985 495.228, 444.845 499.621 L 441.191 503.500 440.952 562.500 C 440.820 594.950, 440.777 622.272, 440.856 623.217 C 440.935 624.161, 443.109 627.311, 445.688 630.217 C 453.303 638.800, 466.890 643.819, 489.932 646.561 C 517.242 649.811, 537.411 647.586, 554.500 639.438 C 561.404 636.147, 564.082 634.274, 566 631.400 L 568.500 627.652 569.118 592.576 C 569.459 573.284, 569.369 557.031, 568.919 556.458 C 568.469 555.885, 567.965 544.169, 567.800 530.423 L 567.500 505.430 563.911 501.843 C 559.579 497.513, 549.930 492.816, 540.722 490.556 C 532.388 488.511, 515.980 486, 510.944 486 C 506.484 486, 505.988 485.040, 507.063 478.487 C 507.513 475.744, 507.908 470.313, 507.940 466.417 C 507.973 462.521, 508.326 459.008, 508.724 458.610 C 509.789 457.544, 509.934 447.077, 508.892 446.433 C 508.401 446.130, 508 443.348, 508 440.251 C 508 434.479, 506.388 424.066, 504.943 420.500 C 504.497 419.400, 503.595 416.700, 502.938 414.500 C 502.282 412.300, 501.352 409.466, 500.872 408.203 C 500.392 406.940, 500 404.892, 500 403.653 C 500 402.414, 499.611 400.973, 499.136 400.450 C 497.583 398.742, 496 390.250, 496 383.625 C 496 378.013, 496.271 377.049, 498 376.500 C 500.322 375.763, 500.717 373, 498.500 373 C 497.389 373, 497 371.833, 497 368.500 C 497 365.167, 496.611 364, 495.500 364 C 494.556 364, 494 364.952, 494 366.566 M 478.171 447.648 C 478.364 448.654, 479.346 449.636, 480.352 449.829 C 481.673 450.084, 482.084 449.673, 481.829 448.352 C 481.636 447.346, 480.654 446.364, 479.648 446.171 C 478.327 445.916, 477.916 446.327, 478.171 447.648 M 478.465 491.535 C 467.781 493.095, 457.744 496.324, 453.317 499.626 C 451.566 500.932, 449.653 502, 449.067 502 C 448.480 502, 448 502.675, 448 503.500 C 448 504.325, 447.550 505, 447 505 C 445.184 505, 445.961 509.961, 448.115 512.115 C 452.924 516.924, 468.433 522.147, 485 524.538 C 491.684 525.502, 493.778 525.503, 494.801 524.545 C 495.517 523.875, 496.948 517.966, 497.983 511.413 C 500.303 496.723, 500.624 492.819, 499.646 491.236 C 498.677 489.669, 490.445 489.785, 478.465 491.535 M 505.573 493.154 C 504.708 494.888, 504 497.649, 504 499.288 C 504 502.045, 502.936 509.364, 501.029 519.731 C 499.890 525.921, 501.044 526.491, 514.382 526.326 C 538.035 526.034, 559.514 519.751, 562.998 512.104 C 563.921 510.080, 563.782 509.181, 562.221 507.070 C 561.175 505.656, 559.011 503.868, 557.410 503.095 C 555.810 502.322, 554.372 501.374, 554.215 500.989 C 554.058 500.604, 550.683 499.256, 546.715 497.994 C 542.747 496.731, 538.600 495.349, 537.500 494.921 C 533.545 493.383, 514.040 490, 509.132 490 C 507.904 490, 506.546 491.203, 505.573 493.154 M 445.478 521.250 C 445.170 522.487, 445.049 545.795, 445.209 573.045 C 445.476 618.523, 445.646 622.813, 447.275 625.299 C 451.428 631.634, 464.854 637.179, 485.500 641.085 C 499.944 643.818, 539.505 642.228, 541.604 638.831 C 541.887 638.374, 543.244 638, 544.621 638 C 547.100 638, 556.041 634.128, 559.075 631.740 C 559.941 631.058, 561.407 629.337, 562.331 627.916 C 563.857 625.571, 563.872 625.050, 562.488 622.276 C 559.546 616.380, 539.838 608.667, 527.500 608.584 C 520.896 608.539, 513.500 611.401, 513.500 614 C 513.500 615.248, 516.130 615.584, 529.173 616 C 544.044 616.474, 544.978 616.624, 547.423 618.924 C 550.947 622.240, 550.810 626.140, 547.058 629.297 C 540.237 635.037, 522.754 635.604, 512.361 630.422 C 506.526 627.513, 506.495 627.474, 505.328 621.563 C 504.601 617.879, 503.402 615.034, 502.169 614.063 C 499.709 612.129, 497.008 604.303, 496.278 597 C 495.976 593.975, 495.427 591.050, 495.059 590.500 C 494 588.921, 493.868 554.595, 494.877 543 C 495.541 535.357, 495.478 532.205, 494.645 531.417 C 494.015 530.822, 489.105 529.809, 483.733 529.167 C 471.940 527.759, 460.537 524.812, 453.942 521.471 C 447.913 518.415, 446.195 518.371, 445.478 521.250 M 558.500 522.538 C 546.376 528.205, 544.622 528.634, 529.500 529.623 C 524.550 529.947, 520.072 530.615, 519.550 531.106 C 518.256 532.323, 511.267 532.241, 510.500 531 C 509.718 529.735, 502.991 529.720, 501 530.979 C 499.892 531.680, 499.487 533.890, 499.451 539.430 C 499.424 543.555, 499.087 547.247, 498.701 547.632 C 498.316 548.018, 498 554.736, 498 562.561 C 498 585.539, 500.748 606.176, 504.277 609.706 C 505.454 610.883, 506.446 610.693, 510.942 608.435 C 518.832 604.473, 527.266 603.319, 536.724 604.908 C 545.805 606.434, 553.391 609.098, 558.469 612.544 C 560.460 613.895, 562.523 615, 563.054 615 C 564.399 615, 563.847 521.758, 562.500 521.401 C 561.950 521.255, 560.150 521.766, 558.500 522.538 M 510.363 620.222 C 508.024 624.007, 516.464 628.947, 526.670 629.766 C 541.237 630.935, 552.125 623.178, 540.233 620.103 C 535.836 618.966, 511.078 619.065, 510.363 620.222 M 465.567 680.767 C 465.255 681.078, 465 698.358, 465 719.167 L 465 757 469 757 L 473 757 473 718.600 L 473 680.200 469.567 680.200 C 467.678 680.200, 465.878 680.455, 465.567 680.767 M 570 681.882 L 566.500 682.500 566.500 717.919 L 566.500 753.339 570.907 755.669 C 573.331 756.951, 576.375 758, 577.671 758 C 578.967 758, 580.910 758.551, 581.989 759.225 C 583.536 760.192, 584.208 760.192, 585.175 759.225 C 585.849 758.551, 587.743 758, 589.384 758 C 592.536 758, 601 754.377, 601 753.027 C 601 752.591, 601.855 752.010, 602.900 751.737 C 604.007 751.447, 606.092 748.590, 607.900 744.885 C 610.602 739.345, 611 737.472, 611 730.285 C 611 718.032, 607.627 711.145, 599.593 707 C 595.171 704.718, 585.398 705.139, 580.230 707.834 C 576.578 709.739, 575.877 709.842, 575.379 708.546 C 575.060 707.714, 574.956 701.175, 575.149 694.016 C 575.373 685.715, 575.138 681.047, 574.500 681.131 C 573.950 681.204, 571.925 681.542, 570 681.882 M 215.750 683.365 C 213.593 685.036, 213.606 685.522, 215.930 690.437 C 217.613 693.998, 217.659 694.811, 216.407 698.937 C 215.645 701.447, 215.017 703.837, 215.011 704.250 C 214.991 705.598, 217.026 705.041, 219.909 702.909 C 223.857 699.991, 226.706 691.433, 225.439 686.303 C 224.593 682.878, 224.152 682.476, 221 682.254 C 219.075 682.119, 216.713 682.619, 215.750 683.365 M 836.615 685.465 C 835.727 686.820, 835 688.212, 835 688.557 C 835 688.902, 834.100 690.329, 833 691.727 C 831.900 693.126, 831 695.109, 831 696.135 C 831 699.176, 835.279 698.466, 837.842 695 C 839.062 693.350, 840.643 692, 841.356 692 C 843.369 692, 847 687.616, 847 685.186 C 847 683.270, 846.457 683, 842.615 683 C 839.058 683, 837.925 683.465, 836.615 685.465 M 276.575 687.918 C 273.905 690.867, 274.901 694.262, 278.759 695.364 C 283.885 696.828, 287.372 692.738, 285.393 687.582 C 284.523 685.314, 278.731 685.535, 276.575 687.918 M 194.500 726.964 C 194.500 762.886, 194.338 766.796, 192.732 769.736 C 190.749 773.364, 186.705 774.917, 183.849 773.146 C 177.710 769.341, 177.955 769.397, 176.439 771.441 C 174.415 774.171, 174.650 777.743, 176.934 778.965 C 177.998 779.534, 181.358 780, 184.401 780 C 189.564 780, 190.285 779.689, 195.217 775.337 C 198.122 772.772, 200.667 770.185, 200.872 769.587 C 201.076 768.989, 201.851 767.150, 202.594 765.500 C 203.634 763.191, 204.009 753.855, 204.222 724.964 L 204.500 687.427 199.500 687.428 L 194.500 687.429 194.500 726.964 M 786.750 694.750 C 785.892 695.712, 784.802 698.493, 784.327 700.928 C 783.662 704.346, 782.784 705.734, 780.483 707.009 C 776.657 709.129, 775.934 712, 779.227 712 C 783.707 712, 784 713.273, 784 732.735 C 784 753.042, 784.484 754.927, 790.215 756.925 C 796.803 759.222, 806.500 756.581, 806.500 752.491 C 806.500 750.778, 805.826 750.500, 801.667 750.500 C 797.612 750.500, 796.444 750.048, 794.417 747.694 C 792.088 744.991, 792 744.329, 792 729.567 C 792 718.336, 792.342 713.961, 793.280 713.182 C 793.984 712.598, 797.022 711.980, 800.030 711.810 C 804.829 711.538, 805.539 711.224, 805.820 709.250 C 806.120 707.136, 805.785 707, 800.270 707 C 797.038 707, 793.861 706.461, 793.200 705.800 C 792.540 705.140, 792 701.990, 792 698.800 C 792 693.829, 791.736 693, 790.155 693 C 789.140 693, 787.608 693.788, 786.750 694.750 M 238.500 705 C 238.160 705.550, 236.943 706, 235.796 706 C 232.198 706, 225.120 711.175, 224.432 714.309 C 224.090 715.868, 224.079 717.412, 224.408 717.741 C 224.737 718.070, 227.142 717.386, 229.753 716.221 C 236.831 713.063, 238.688 712.742, 242.533 714.011 C 246.357 715.273, 249.334 719.669, 248.811 723.280 C 248.487 725.515, 248.222 725.640, 234.167 730.148 C 230.133 731.441, 225.443 733.659, 223.743 735.077 C 221.033 737.336, 220.598 738.415, 220.205 743.838 C 219.824 749.113, 220.100 750.522, 222.081 753.414 C 223.524 755.519, 225.750 757.196, 227.952 757.837 C 231.692 758.924, 241 758.294, 241 756.953 C 241 756.520, 243.042 755.385, 245.538 754.432 L 250.076 752.699 252.843 755.350 C 256.197 758.563, 261.817 758.965, 264.345 756.171 C 266.643 753.632, 266.411 752.003, 263.750 751.985 C 258.723 751.950, 258.533 751.291, 258 731.966 L 257.500 713.854 253.289 709.927 C 250.735 707.546, 248.101 706, 246.598 706 C 245.234 706, 243.840 705.550, 243.500 705 C 243.160 704.450, 242.035 704, 241 704 C 239.965 704, 238.840 704.450, 238.500 705 M 405 705.085 C 394.354 707.835, 390.354 710.759, 386.648 718.500 C 384.302 723.401, 383.326 736.812, 384.893 742.615 C 386.239 747.600, 391.259 754.192, 394.577 755.333 C 395.910 755.792, 397 756.579, 397 757.083 C 397 758.456, 414.154 758.133, 416.561 756.715 C 420.572 754.350, 426 749.483, 426 748.250 C 426 746.637, 426.024 746.634, 418.733 749.090 C 412.255 751.272, 406.935 751.152, 402.820 748.731 C 395.501 744.425, 390.152 733.307, 394.582 731.607 C 395.452 731.273, 403.102 731, 411.582 731 L 427 731 426.958 726.250 C 426.896 719.091, 424.137 712.637, 419.612 709.067 C 417.474 707.380, 414.913 706, 413.922 706 C 412.930 706, 411.840 705.550, 411.500 705 C 410.781 703.837, 409.778 703.850, 405 705.085 M 689.581 704.869 C 689.286 705.346, 687.302 706.016, 685.173 706.356 C 679.797 707.216, 676 710.410, 676 714.073 C 676 717.456, 677.747 717.867, 681.546 715.378 C 682.918 714.479, 686.308 713.698, 689.145 713.628 C 693.848 713.510, 694.505 713.786, 697.167 717 C 699.012 719.227, 699.964 721.409, 699.783 723 C 699.531 725.226, 698.622 725.732, 691.500 727.611 C 680.459 730.524, 677.602 731.968, 674.063 736.421 C 669.897 741.663, 669.777 748.084, 673.750 753.264 C 676.844 757.299, 678.468 757.967, 685.235 757.986 C 688.798 757.997, 691.220 757.231, 695.021 754.892 L 700.071 751.785 702.488 754.392 C 706.352 758.562, 716 757.782, 716 753.300 C 716 752.585, 715.155 752, 714.122 752 C 710.239 752, 709.607 749.544, 709.821 735.285 C 709.933 727.832, 709.632 721.232, 709.151 720.617 C 708.671 720.003, 708.034 717.907, 707.736 715.959 C 706.990 711.091, 702.094 706, 698.158 706 C 696.486 706, 694.840 705.550, 694.500 705 C 693.740 703.771, 690.316 703.680, 689.581 704.869 M 501.500 705.929 C 497.476 706.900, 494.935 708.348, 492.324 711.158 C 489.871 713.799, 488.204 719, 489.811 719 C 491.111 719, 497.298 715.773, 498.105 714.674 C 499.219 713.157, 506.898 712.715, 509.977 713.990 C 512.180 714.903, 513.308 716.295, 514.167 719.163 C 515.714 724.326, 514.850 725.091, 503.664 728.457 C 496.744 730.540, 493.872 731.998, 490.414 735.186 C 486.261 739.014, 486 739.568, 486 744.562 C 486 751.626, 487.221 754.465, 491.089 756.394 C 496.322 759.005, 502.420 758.451, 509.195 754.750 L 515.143 751.500 517.524 754.250 C 520.087 757.211, 525.292 757.985, 529.066 755.965 C 531.679 754.566, 531.514 752.213, 528.775 751.820 C 524.829 751.253, 524.031 747.687, 524.015 730.554 C 524 715.077, 523.925 714.499, 521.435 710.906 C 517.893 705.795, 510.109 703.851, 501.500 705.929 M 634.375 706.738 C 629.922 708.641, 625.667 713.088, 622.062 719.609 C 620.073 723.207, 619.836 724.822, 620.159 732.609 C 620.456 739.774, 621.065 742.616, 623.293 747.250 C 624.814 750.413, 626.720 753, 627.529 753 C 628.338 753, 629.002 753.337, 629.004 753.750 C 629.006 754.163, 631.061 755.345, 633.572 756.377 C 637.113 757.834, 639.779 758.149, 645.468 757.784 C 652.242 757.349, 653.148 757.015, 657.367 753.407 C 663.838 747.872, 663.105 744.826, 656.166 748.414 C 645.748 753.801, 635.427 749.757, 629.944 738.141 C 627.999 734.018, 627.980 733.680, 629.599 731.891 C 631.447 729.849, 638.402 729.223, 639.500 731 C 639.854 731.572, 645.010 732, 651.559 732 L 663 732 663 725.846 C 663 718.645, 659.574 710.261, 655.554 707.628 C 651.649 705.069, 639.480 704.557, 634.375 706.738 M 824.500 706.829 C 815.735 711.836, 811.542 720.965, 812.165 733.681 C 812.961 749.903, 820.353 758, 834.367 758 C 842.022 758, 845.805 756.575, 849.355 752.356 C 853.744 747.138, 852.877 745.900, 846.654 748.500 C 839.039 751.682, 827.667 749.104, 824.596 743.500 C 823.993 742.400, 823.249 741.275, 822.943 741 C 822.637 740.725, 821.790 739.026, 821.061 737.224 C 819.890 734.330, 819.944 733.719, 821.523 731.974 C 823.160 730.166, 824.649 730, 839.275 730 L 855.240 730 854.795 724.250 C 854.239 717.081, 850.736 709.230, 847.553 708.020 C 846.256 707.527, 844.899 706.646, 844.538 706.062 C 843.424 704.259, 827.962 704.851, 824.500 706.829 M 316.896 707.331 C 315.463 707.974, 313.499 709.160, 312.531 709.968 C 310.957 711.280, 310.581 711.201, 308.975 709.218 C 307.822 707.793, 306.074 707, 304.090 707 L 301 707 301 732 L 301 757 305 757 L 309 757 309 738.556 C 309 720.614, 309.064 720.037, 311.361 717.367 C 313.117 715.325, 314.972 714.468, 318.611 714.019 C 325.028 713.226, 328.174 714.348, 330.551 718.279 C 332.247 721.082, 332.543 723.788, 332.829 739.132 L 333.159 756.764 336.788 757.353 C 339.134 757.734, 340.692 757.510, 341.194 756.721 C 342.291 754.994, 342.193 724.237, 341.088 723.554 C 339.524 722.588, 341.368 718.271, 344.339 715.941 C 348.385 712.769, 355.596 712.792, 359.273 715.990 C 360.773 717.294, 362 719.315, 362 720.480 C 362 721.646, 362.490 723.090, 363.088 723.688 C 363.813 724.413, 364.063 730.334, 363.838 741.440 C 363.508 757.697, 363.549 758.091, 365.500 757.566 C 366.600 757.270, 368.625 757.022, 370 757.015 L 372.500 757.002 372.256 739.251 C 371.858 710.279, 370.384 706.870, 357.949 706.167 C 350.373 705.739, 344.968 707.477, 342.730 711.061 C 341.077 713.707, 340.339 713.539, 335.868 709.500 C 332.280 706.258, 331.534 706.006, 325.747 706.081 C 322.311 706.126, 318.328 706.688, 316.896 707.331 M 276 732 L 276 757 280 757 L 284 757 284 732 L 284 707 280 707 L 276 707 276 732 M 724.071 725.446 C 724.140 735.653, 724.552 744.223, 724.985 744.491 C 725.419 744.759, 726.073 746.445, 726.438 748.239 C 726.875 750.380, 728.496 752.616, 731.160 754.750 C 737.223 759.608, 745.127 759.245, 753.243 753.736 C 756.113 751.788, 758 752.114, 758 754.559 C 758 755.573, 759.184 756, 762 756 L 766 756 766 731.500 L 766 707 762 707 L 758 707 758 721.300 C 758 729.165, 757.578 736.028, 757.063 736.550 C 756.548 737.072, 755.985 739.503, 755.813 741.951 C 755.542 745.800, 755.046 746.666, 752.139 748.357 C 747.003 751.347, 741.099 751.099, 737.476 747.743 L 734.500 744.986 734 726.243 L 733.500 707.500 728.722 707.194 L 723.945 706.888 724.071 725.446 M 829.500 710.966 C 824.972 713.090, 822.350 716.868, 821.845 722 L 821.500 725.500 833.223 725.782 C 844.886 726.062, 844.949 726.051, 845.552 723.647 C 846.303 720.657, 843.029 713.903, 839.808 711.797 C 835.844 709.206, 833.632 709.027, 829.500 710.966 M 635.186 713.451 C 631.400 716.872, 628.307 723.707, 629.848 725.248 C 630.287 725.687, 635.422 726.148, 641.261 726.273 C 653.952 726.544, 654.980 725.999, 653.010 720.030 C 652.278 717.814, 651.302 716, 650.840 716 C 650.378 716, 650 715.422, 650 714.716 C 650 712.946, 644.751 710, 641.599 710 C 640.047 710, 637.472 711.386, 635.186 713.451 M 400.506 712.751 C 397.788 714.175, 394 720.701, 394 723.960 C 394 725.895, 394.592 726, 405.531 726 C 417.998 726, 419.473 725.328, 417.196 720.683 C 416.607 719.482, 415.842 717.487, 415.495 716.249 C 415.148 715.011, 413.977 713.523, 412.891 712.942 C 409.949 711.367, 403.342 711.265, 400.506 712.751 M 580.402 713.905 C 578.148 714.929, 576.010 716.531, 575.652 717.465 C 574.577 720.267, 574.917 744.724, 576.066 747.246 C 577.523 750.442, 584.489 753.345, 588.962 752.619 C 593.486 751.885, 599.882 745.593, 599.951 741.809 C 599.978 740.329, 600.450 738.840, 601 738.500 C 602.468 737.593, 602.218 728.870, 600.593 724.265 C 598.925 719.535, 594.935 715.289, 590.366 713.380 C 586.143 711.615, 585.352 711.657, 580.402 713.905 M 240.250 732.110 C 237.363 733.226, 235 734.558, 235 735.070 C 235 735.581, 234.341 736, 233.535 736 C 231.443 736, 229.882 739.445, 229.817 744.208 C 229.754 748.727, 232.583 751.936, 236.667 751.978 C 239.805 752.010, 247.983 748.295, 248.098 746.786 C 248.152 746.078, 248.204 742.125, 248.215 738 C 248.237 729.299, 247.991 729.117, 240.250 732.110 M 506.845 731.485 C 501.120 733.591, 498.039 736.002, 496.021 739.959 C 494.319 743.295, 494.288 743.884, 495.661 746.720 C 497.917 751.377, 501.942 752.676, 507.520 750.546 C 513.445 748.283, 515 745.853, 515 738.859 C 515 729.553, 514.161 728.794, 506.845 731.485 M 690.500 731.871 C 684.297 734.705, 680 739.236, 680 742.943 C 680 748.942, 685.981 752.620, 692.181 750.435 C 698.717 748.131, 700 746.008, 700 737.500 L 700 730 697.250 730.022 C 695.737 730.034, 692.700 730.866, 690.500 731.871" stroke="none" fill="#ffffff" fill-rule="evenodd"/><path d="M 502.949 369.552 C 500.708 371.865, 498.867 372.937, 497.674 372.625 C 496.352 372.279, 496.003 372.566, 496.421 373.655 C 496.739 374.485, 497 375.602, 497 376.138 C 497 376.674, 498.414 376.300, 500.142 375.307 C 502.497 373.953, 503.395 373.814, 503.726 374.750 C 504.253 376.245, 507.624 376.417, 508.504 374.993 C 508.847 374.439, 508.423 373.716, 507.563 373.386 C 505.589 372.628, 505.555 370.614, 507.489 369.009 C 508.914 367.826, 508.701 366, 507.137 366 C 506.728 366, 504.843 367.598, 502.949 369.552 M 476 445.735 C 476 445.987, 477.711 448.136, 479.801 450.511 C 481.892 452.886, 486.011 458.699, 488.955 463.428 C 491.899 468.157, 494.516 471.817, 494.771 471.562 C 495.575 470.758, 489.232 458.148, 484.957 452.054 C 482.344 448.329, 479.973 446.037, 478.427 445.741 C 477.092 445.486, 476 445.483, 476 445.735 M 510.500 531 C 510.840 531.550, 512.865 532, 515 532 C 517.135 532, 519.160 531.550, 519.500 531 C 519.881 530.383, 518.157 530, 515 530 C 511.843 530, 510.119 530.383, 510.500 531 M 568 562.382 C 568 565.957, 568.450 569.160, 569 569.500 C 569.627 569.888, 570 567.697, 570 563.618 C 570 560.043, 569.550 556.840, 569 556.500 C 568.373 556.112, 568 558.303, 568 562.382 M 465.444 681.091 C 464.903 681.965, 465.427 682.110, 467.371 681.622 C 468.840 681.253, 470.984 681.456, 472.136 682.073 C 473.802 682.964, 474.141 682.918, 473.788 681.847 C 473.219 680.115, 466.427 679.500, 465.444 681.091 M 845.211 683.966 C 846.269 685.660, 846.037 686.352, 843.532 688.966 C 841.934 690.635, 841.120 692, 841.724 692 C 842.871 692, 848 686.380, 848 685.123 C 848 684.146, 845.796 682, 844.792 682 C 844.347 682, 844.536 682.885, 845.211 683.966 M 831.481 694.390 C 830.632 696.424, 830.207 698.526, 830.537 699.060 C 831.417 700.484, 833.005 699.178, 832.379 697.546 C 832.086 696.782, 832.367 695.183, 833.004 693.992 C 833.641 692.802, 833.906 691.573, 833.594 691.261 C 833.282 690.948, 832.331 692.357, 831.481 694.390 M 724.667 706.667 C 723.684 707.649, 723.854 743.792, 724.844 744.404 C 725.308 744.691, 725.776 736.546, 725.883 726.305 C 725.989 716.064, 726.311 707.306, 726.597 706.842 C 727.213 705.846, 725.631 705.702, 724.667 706.667 M 313.442 709.094 C 313.070 709.696, 311.693 709.983, 310.383 709.733 C 307.828 709.244, 307.521 709.695, 308.912 711.892 C 309.637 713.036, 310.344 712.891, 312.897 711.074 C 314.603 709.858, 316 708.669, 316 708.432 C 316 707.546, 314.093 708.040, 313.442 709.094 M 708.148 731.973 C 708.120 738.556, 708.525 744.206, 709.048 744.530 C 709.630 744.890, 710 740.456, 710 733.118 C 710 726.518, 709.595 720.868, 709.099 720.561 C 708.585 720.244, 708.177 725.143, 708.148 731.973 M 340 739.241 C 340 750.631, 339.636 755.964, 338.800 756.800 C 337.867 757.733, 337.954 758, 339.193 758 C 340.069 758, 341.059 757.288, 341.393 756.418 C 342.434 753.706, 342.081 724.168, 341 723.500 C 340.349 723.098, 340 728.590, 340 739.241 M 651.210 729.781 C 643.604 729.955, 639.149 730.431, 639.519 731.031 C 640.353 732.380, 662.703 732.289, 663.541 730.933 C 663.904 730.347, 664.043 729.784, 663.850 729.683 C 663.658 729.583, 657.970 729.626, 651.210 729.781 M 248 736 C 248 738.491, 248.395 739.874, 249 739.500 C 249.550 739.160, 250 737.585, 250 736 C 250 734.415, 249.550 732.840, 249 732.500 C 248.395 732.126, 248 733.509, 248 736 M 756.750 736.572 C 756.337 736.991, 756 739.148, 756 741.367 C 756 744.227, 756.311 745.089, 757.068 744.332 C 757.656 743.744, 757.993 741.587, 757.818 739.537 C 757.643 737.487, 757.163 736.153, 756.750 736.572" stroke="none" fill="#c19a6b" fill-rule="evenodd"/><path d="" stroke="none" fill="#ffffff" fill-rule="evenodd"/><path d="M 485.057 247.250 C 483.590 254.866, 481.673 260.760, 478.884 266.227 C 475.862 272.150, 465.681 287.334, 461.041 292.836 C 457.032 297.590, 453.807 302.814, 449.826 311 C 447.963 314.832, 447.628 317.283, 447.569 327.500 C 447.493 340.654, 448.113 343.106, 453.689 351.721 C 458.535 359.207, 472.935 371.398, 474.768 369.566 C 475.026 369.307, 473.722 367.314, 471.869 365.137 C 464.654 356.658, 461.872 342.782, 465.425 333 C 467.758 326.575, 473.473 317.570, 480.195 309.724 C 483.388 305.998, 486 302.492, 486 301.934 C 486 301.376, 486.874 299.700, 487.942 298.210 C 489.010 296.719, 490.644 293.114, 491.574 290.198 C 492.936 285.925, 493.646 284.954, 495.232 285.198 C 496.467 285.388, 497.657 286.840, 498.431 289.103 C 500.012 293.724, 505.906 303.838, 511.483 311.500 C 513.886 314.800, 515.885 318.002, 515.926 318.615 C 515.967 319.228, 516.819 320.803, 517.820 322.115 C 520.477 325.596, 523.998 337.779, 524.010 343.528 C 524.027 351.985, 520.311 360.662, 513.771 367.436 C 510.618 370.701, 508.265 373.599, 508.542 373.875 C 509.648 374.982, 518.512 369.629, 523.707 364.717 C 529.623 359.122, 536 350.298, 536 347.706 C 536 346.832, 536.450 345.840, 537 345.500 C 537.550 345.160, 538 343.874, 538 342.641 C 538 341.408, 538.478 339.922, 539.063 339.337 C 540.987 337.413, 539.032 307.756, 536.894 306.435 C 536.402 306.131, 536 304.962, 536 303.838 C 536 300.509, 526.237 281.323, 522.089 276.500 C 521.143 275.400, 519.532 273.150, 518.509 271.500 C 513.699 263.746, 490.536 241, 487.449 241 C 486.786 241, 485.728 243.763, 485.057 247.250 M 492.809 305.726 C 491.013 307.791, 490.040 309.563, 484.102 321.591 C 481.684 326.491, 479.079 331.724, 478.314 333.220 C 473.776 342.093, 472.779 353.713, 475.955 360.709 C 478.097 365.427, 486.149 374, 488.439 374 C 490.534 374, 492 377.191, 492 381.751 C 492 388.398, 494.518 401.134, 497.980 412 C 498.944 415.025, 500.295 419.525, 500.982 422 C 501.669 424.475, 502.733 427.850, 503.345 429.500 C 505.023 434.021, 504.669 474.147, 502.896 480.500 L 501.500 485.500 492.500 486.220 C 463.423 488.548, 452.824 491.483, 445.239 499.308 L 441.176 503.500 440.859 563.500 C 440.617 609.090, 440.832 624.016, 441.751 625.648 C 443.910 629.481, 452.354 636.221, 458.500 639.018 C 466.533 642.673, 475.242 644.732, 490.119 646.494 C 516.011 649.561, 537.104 647.528, 552.500 640.483 C 562.484 635.914, 567.526 630.867, 568.467 624.500 C 568.873 621.750, 568.874 594.149, 568.470 563.164 L 567.734 506.829 562.683 501.778 C 553.942 493.038, 540.468 488.806, 513.500 486.333 C 510.200 486.030, 507.170 485.479, 506.767 485.108 C 506.364 484.738, 506.491 481.749, 507.048 478.467 C 509.487 464.116, 507.987 426.100, 504.842 422.550 C 504.379 422.027, 504 420.586, 504 419.347 C 504 418.108, 503.597 416.060, 503.104 414.797 C 502.611 413.534, 501.630 410.475, 500.924 408 C 500.218 405.525, 499.327 403.050, 498.946 402.500 C 497.244 400.049, 496.625 393.452, 496.802 379.668 C 496.939 369.016, 496.675 364.942, 495.863 365.212 C 495.242 365.419, 494.219 367.144, 493.591 369.044 C 492.625 371.964, 492.018 372.470, 489.679 372.306 C 488.156 372.199, 486.051 371.074, 485.001 369.806 C 481.655 365.768, 478 357.919, 478 354.774 C 478 350.429, 480.060 344.062, 482.766 340.041 C 484.046 338.139, 486.760 333.104, 488.797 328.852 C 490.834 324.600, 493.051 321.094, 493.724 321.061 C 494.398 321.027, 495.590 322.238, 496.374 323.750 C 497.157 325.262, 500.642 330.325, 504.117 335 L 510.436 343.500 510.468 352.645 C 510.494 360.105, 510.166 362.158, 508.685 363.795 C 507.556 365.043, 507.258 366.041, 507.897 366.436 C 508.462 366.786, 510.174 365.183, 511.701 362.875 C 514.263 359.004, 514.475 357.937, 514.435 349.089 C 514.394 340.239, 514.143 339.038, 511.170 333.500 C 509.398 330.200, 506.466 325.658, 504.654 323.408 C 502.842 321.157, 500.072 316.207, 498.500 312.408 C 494.948 303.826, 494.708 303.545, 492.809 305.726 M 378.600 349.839 C 378.228 350.440, 378.782 352.634, 379.830 354.716 C 383.889 362.775, 387.075 373.750, 390.073 390 C 390.632 393.025, 391.501 397.525, 392.005 400 C 392.509 402.475, 393.367 406.899, 393.913 409.831 C 395.689 419.373, 398.114 426.339, 402.804 435.371 C 406.534 442.556, 408.881 445.588, 415.145 451.318 C 419.399 455.209, 424.369 459.190, 426.190 460.165 C 434.633 464.688, 442.129 468, 443.919 468 C 444.999 468, 446.113 468.373, 446.394 468.829 C 446.676 469.285, 449.515 470.219, 452.703 470.904 C 455.892 471.589, 460.075 472.533, 462 473.002 C 463.925 473.471, 469.100 474.340, 473.500 474.934 C 488.515 476.960, 494.160 475.864, 486.750 472.362 C 475.376 466.988, 466.593 460.645, 456.112 450.235 C 446.493 440.681, 443.971 437.384, 437.317 425.654 C 433.690 419.262, 433.210 417, 435.480 417 C 437.766 417, 445.270 420.111, 447.500 421.983 C 448.600 422.907, 451.245 424.657, 453.379 425.873 C 458.048 428.535, 463.935 433.314, 473.137 441.914 C 476.912 445.442, 480 447.838, 480 447.239 C 480 446.639, 474.497 441.053, 467.771 434.825 C 445.576 414.271, 437.729 405.920, 433.750 398.618 C 429.873 391.504, 429.189 389, 431.123 389 C 432.312 389, 443.117 396.390, 449 401.227 C 475.474 422.995, 482.014 429.922, 489.300 443.917 C 494.116 453.167, 494.770 453.944, 496.100 451.992 C 497.439 450.028, 496.281 426.161, 494.524 419.500 C 492.527 411.929, 489.122 403.868, 486.421 400.317 C 485.089 398.566, 484 396.848, 484 396.500 C 484 394.831, 477.676 387.944, 469.558 380.771 C 462.013 374.104, 458.176 371.660, 445.539 365.470 C 428.836 357.287, 422.064 354.866, 408.032 352.058 C 395.636 349.578, 379.512 348.362, 378.600 349.839 M 571 351.394 C 567.975 352.664, 557.850 357.567, 548.500 362.291 C 534.747 369.238, 529.598 372.466, 521.542 379.189 C 516.065 383.760, 510.263 389.382, 508.649 391.683 C 504.416 397.718, 504.709 404.125, 509.944 419.954 C 512.732 428.381, 514.209 434.866, 514.651 440.618 C 515.103 446.505, 515.683 449, 516.597 449 C 517.926 449, 525.987 438.344, 528.964 432.652 C 529.871 430.918, 532.281 426.923, 534.322 423.774 C 536.362 420.625, 539.062 416.125, 540.322 413.774 C 549.043 397.504, 551.670 398.054, 548.581 415.500 C 545.294 434.066, 537.413 448.687, 520.771 467.097 C 516.497 471.825, 513 475.987, 513 476.347 C 513 478.103, 516.836 476.662, 531.932 469.236 C 541.461 464.549, 548.837 459.224, 557.888 450.499 C 565.025 443.619, 567.559 440.336, 571.201 433.251 C 575.451 424.984, 576.410 422.003, 578.947 409.174 C 579.529 406.227, 580 391.593, 580 376.424 C 580 345.196, 580.756 347.298, 571 351.394 M 479 491.161 C 467.771 492.753, 453.161 498.084, 448.250 502.380 C 445.390 504.882, 445.328 509.328, 448.115 512.115 C 453.199 517.199, 472.460 523.408, 486.879 524.610 L 494.942 525.283 496.020 522.447 C 497.610 518.265, 499.356 505.502, 499.433 497.500 L 499.500 490.500 492.500 490.370 C 488.650 490.298, 482.575 490.654, 479 491.161 M 505.861 491.634 C 504.886 492.744, 503.983 496.134, 503.634 500 C 502.786 509.400, 501.337 519.227, 500.501 521.263 C 498.618 525.844, 506.622 527.561, 522.714 526.027 C 547.694 523.647, 563 517.618, 563 510.157 C 563 505.814, 557.741 501.560, 548.500 498.428 C 544.100 496.937, 540.050 495.384, 539.500 494.977 C 538.950 494.570, 536.700 493.947, 534.500 493.592 C 532.300 493.237, 528.025 492.533, 525 492.027 C 511.282 489.735, 507.595 489.659, 505.861 491.634 M 445.478 521.250 C 445.170 522.487, 445.049 545.795, 445.209 573.045 C 445.476 618.523, 445.646 622.813, 447.275 625.299 C 453.241 634.399, 477.206 641.592, 505 642.625 C 520.188 643.189, 537.350 641.588, 543.500 639.033 C 544.600 638.576, 547.075 637.638, 549 636.948 C 558.043 633.709, 565.254 626.709, 563.705 622.673 C 561.653 617.325, 537.144 607.893, 525.685 608.041 C 521.505 608.095, 513.588 612.026, 513.177 614.250 C 512.880 615.855, 514.135 616, 528.350 616 C 543.563 616, 543.903 616.047, 546.923 618.589 C 552.566 623.337, 549.893 629.873, 541.347 632.226 C 534.491 634.114, 523.479 634.281, 517.648 632.586 C 511.135 630.693, 505 624.671, 505 620.173 C 505 618.572, 503.538 615.295, 501.620 612.598 C 499.470 609.574, 497.860 605.781, 497.195 602.172 C 494.020 584.944, 493.168 561.586, 495.021 542.531 C 495.769 534.834, 495.706 532.308, 494.745 531.448 C 494.060 530.835, 489.105 529.809, 483.733 529.167 C 471.940 527.759, 460.537 524.812, 453.942 521.471 C 447.913 518.415, 446.195 518.371, 445.478 521.250 M 555.500 524 C 553.300 525.018, 550.563 525.885, 549.417 525.926 C 548.271 525.967, 547.003 526.330, 546.599 526.734 C 544.749 528.584, 533.088 529.877, 517.725 529.936 L 500.950 530 499.874 532.750 C 497.959 537.645, 497.575 577.005, 499.316 590 C 501.828 608.747, 504.217 613.270, 509.759 609.768 C 518.670 604.136, 527.257 602.876, 539.512 605.401 C 547.170 606.979, 559.210 611.913, 560.502 614.003 C 560.841 614.551, 561.766 615, 562.559 615 C 563.793 615, 564 608.320, 564 568.500 L 564 522 561.750 522.074 C 560.513 522.115, 557.700 522.982, 555.500 524 M 510.405 620.153 C 509.121 622.232, 511.489 625.329, 515.833 627.250 C 521.876 629.923, 531.961 630.565, 539 628.723 C 543.707 627.492, 544.545 626.913, 544.810 624.709 C 545.327 620.413, 542.285 619.570, 525.720 619.422 C 517.591 619.349, 510.699 619.678, 510.405 620.153 M 466.750 681.689 C 465.123 682.115, 465 684.770, 465 719.573 L 465 757 469 757 L 473 757 473 719.607 C 473 678.165, 473.299 679.978, 466.750 681.689 M 215.500 684 C 213.870 685.801, 213.842 686.174, 215.214 687.750 C 217.635 690.529, 218.001 695.096, 216.213 700.200 C 215.307 702.785, 214.934 705.260, 215.383 705.700 C 216.423 706.718, 222.807 699.519, 224.622 695.282 C 226.433 691.053, 226.367 686.969, 224.443 684.223 C 222.472 681.408, 217.948 681.295, 215.500 684 M 566.714 682.619 C 566.321 683.012, 566 698.987, 566 718.120 L 566 752.906 569.750 754.537 C 571.813 755.434, 574.281 756.580, 575.236 757.084 C 577.584 758.322, 591.725 758.253, 592.500 757 C 592.840 756.450, 593.887 756, 594.826 756 C 597.682 756, 606.881 747.152, 609.109 742.261 C 610.837 738.468, 611.126 736.172, 610.842 728.515 C 610.541 720.436, 610.170 718.849, 607.774 715.412 C 606.274 713.260, 603.410 710.202, 601.409 708.616 C 598.248 706.110, 596.901 705.726, 591.136 705.683 C 586.706 705.650, 583.503 706.191, 581.500 707.310 C 575.295 710.780, 575.088 710.424, 574.779 695.750 L 574.500 682.500 570.964 682.202 C 569.020 682.039, 567.107 682.226, 566.714 682.619 M 837.044 686.762 C 834.764 690.232, 831 697.051, 831 697.711 C 831 697.870, 831.659 698, 832.463 698 C 833.268 698, 836.875 695.242, 840.479 691.871 C 845.679 687.006, 846.796 685.459, 845.893 684.371 C 843.665 681.687, 839.670 682.767, 837.044 686.762 M 277.200 687.200 C 274.465 689.935, 277.204 696, 281.174 696 C 283.297 696, 286 692.755, 286 690.206 C 286 686.670, 279.836 684.564, 277.200 687.200 M 195.517 689.189 C 195.260 689.910, 194.926 707.600, 194.775 728.500 C 194.531 762.162, 194.304 766.857, 192.787 769.629 C 190.209 774.337, 185.164 775.464, 180.460 772.382 C 177.471 770.423, 175 771.874, 175 775.587 C 175 780.289, 183.253 781.508, 190.694 777.906 C 195.501 775.579, 202 768.360, 202 765.347 C 202 764.276, 202.456 762.944, 203.013 762.387 C 203.669 761.731, 203.933 748.552, 203.763 724.937 L 203.500 688.500 199.742 688.189 C 197.313 687.988, 195.819 688.342, 195.517 689.189 M 786.750 694.750 C 785.892 695.712, 784.802 698.493, 784.327 700.928 C 783.662 704.346, 782.784 705.734, 780.483 707.009 C 776.657 709.129, 775.934 712, 779.227 712 C 783.692 712, 784 713.304, 784 732.200 L 784 750 788 754 C 791.279 757.279, 792.676 757.991, 795.750 757.952 C 800.858 757.887, 806.500 755.020, 806.500 752.491 C 806.500 750.778, 805.826 750.500, 801.667 750.500 C 797.600 750.500, 796.446 750.050, 794.392 747.666 C 791.994 744.881, 791.956 744.552, 792.226 728.666 L 792.500 712.500 799 712 C 804.667 711.564, 805.500 711.244, 805.500 709.500 C 805.500 707.782, 804.730 707.456, 800.030 707.190 C 797.022 707.020, 793.984 706.402, 793.280 705.818 C 792.506 705.175, 792 702.434, 792 698.878 C 792 693.831, 791.739 693, 790.155 693 C 789.140 693, 787.608 693.788, 786.750 694.750 M 402.459 705.942 C 395.460 707.045, 387.275 715.069, 384.977 723.080 C 383.672 727.630, 383.746 738.542, 385.116 743.500 C 386.318 747.852, 391.797 753.755, 397.080 756.390 C 400.862 758.277, 412.994 758.584, 416.316 756.878 C 419.527 755.228, 424 750.825, 424 749.313 C 424 747.665, 423.616 747.679, 417.500 749.555 C 411.398 751.426, 403.786 750.641, 399.856 747.736 C 397.048 745.659, 393 737.651, 393 734.172 C 393 733.095, 393.712 731.941, 394.582 731.607 C 395.452 731.273, 403.163 731, 411.719 731 L 427.274 731 426.744 724.401 C 426.183 717.416, 422.976 711.445, 417.852 707.849 C 415.083 705.906, 408.146 705.047, 402.459 705.942 M 504 705.632 C 498.145 706.635, 496.859 707.185, 493.518 710.118 C 487.973 714.987, 489.363 720.325, 495.077 716.101 C 498.779 713.364, 505.993 712.340, 509.969 713.987 C 512.180 714.903, 513.307 716.292, 514.167 719.163 C 515.714 724.326, 514.850 725.091, 503.664 728.457 C 496.744 730.540, 493.872 731.998, 490.414 735.186 C 486.193 739.077, 486 739.502, 486 744.924 C 486 750.170, 486.284 750.871, 489.792 754.297 C 493.106 757.533, 494.193 758, 498.415 758 C 501.963 758, 504.781 757.157, 509.021 754.825 L 514.796 751.651 517.975 754.325 C 521.336 757.154, 524.229 757.624, 528.435 756.025 C 531.690 754.787, 531.709 753.220, 528.482 751.993 C 527.097 751.467, 525.522 749.874, 524.982 748.453 C 524.442 747.032, 524 738.630, 524 729.781 L 524 713.693 519.834 709.846 C 517.542 707.731, 514.898 706, 513.959 706 C 513.019 706, 510.956 705.821, 509.375 705.602 C 507.794 705.383, 505.375 705.396, 504 705.632 M 637.955 705.656 C 633.935 706.347, 625.782 713.114, 623.674 717.508 C 622.622 719.704, 621.364 722.281, 620.880 723.236 C 619.462 726.034, 619.868 738.375, 621.534 743.096 C 623.364 748.284, 625.969 751.297, 631.946 755.141 C 640.201 760.450, 653.721 758.273, 659.354 750.727 C 662.094 747.058, 660.850 746.314, 655.787 748.594 C 647.295 752.418, 634.920 749.569, 631.498 743 C 629.414 738.998, 627.691 732.310, 628.434 731.107 C 628.891 730.368, 634.787 730, 646.176 730 L 663.233 730 662.820 723.511 C 662.368 716.423, 660.834 713.576, 654.935 708.882 C 651.444 706.105, 643.797 704.651, 637.955 705.656 M 823.209 708.250 C 814.971 714.826, 812 721.120, 812 732 C 812 740.539, 814.081 746.461, 818.793 751.332 C 824.121 756.841, 826.915 758, 834.861 758 C 841.477 758, 842.072 757.802, 846.910 753.977 C 849.710 751.764, 852 749.289, 852 748.477 C 852 746.622, 851.140 746.626, 846.654 748.500 C 839.203 751.613, 829.493 749.581, 824.425 743.847 C 821.918 741.011, 819.497 733.752, 820.333 731.574 C 820.850 730.226, 823.407 730, 838.111 730 L 855.285 730 854.682 724.233 C 853.976 717.475, 852.148 713.398, 848.288 709.974 C 843.594 705.809, 841.294 705, 834.154 705 C 827.902 705, 826.914 705.294, 823.209 708.250 M 229.967 708.376 C 222.483 713.462, 222.205 719.945, 229.631 716.223 C 235.347 713.358, 238.797 712.778, 242.618 714.039 C 246.175 715.213, 249 719.181, 249 723.001 C 249 725.079, 244.070 728, 240.562 728 C 237.695 728, 227.860 733.132, 223.940 736.673 C 220.260 739.998, 220 740.596, 220 745.748 C 220 750.777, 220.315 751.561, 223.571 754.632 C 226.713 757.595, 227.788 758, 232.518 758 C 236.332 758, 239.260 757.274, 242.596 755.500 C 245.182 754.125, 248.052 753, 248.975 753 C 249.897 753, 251.708 754.125, 253 755.500 C 255.722 758.398, 258.406 758.642, 262.897 756.402 C 266.647 754.531, 266.513 752.915, 262.520 751.847 C 260.953 751.428, 259.302 750.503, 258.851 749.792 C 258.400 749.082, 258.024 741.692, 258.015 733.372 C 257.998 716.482, 257.141 712.980, 251.960 708.620 C 249.192 706.290, 247.994 706, 241.155 706 C 234.706 706, 232.900 706.384, 229.967 708.376 M 315.453 709.038 C 311.137 712.467, 308.651 712.537, 308.180 709.240 C 307.920 707.415, 307.222 707, 304.413 707 L 300.965 707 301.233 731.750 L 301.500 756.500 305.250 756.810 L 309 757.121 309 738.783 C 309 718.096, 309.205 717.397, 316.262 713.988 C 320.157 712.105, 320.644 712.080, 324.526 713.563 C 331.668 716.291, 332.448 718.708, 332.832 739.307 L 333.164 757.115 336.332 756.807 L 339.500 756.500 340.001 738 C 340.568 717.025, 340.946 715.835, 347.634 713.963 C 354.314 712.092, 358.683 713.588, 361.574 718.735 C 363.775 722.654, 363.972 724.210, 364.226 739.734 L 364.500 756.500 367.391 756.830 C 369.034 757.018, 370.647 756.586, 371.126 755.830 C 372.640 753.442, 372.177 719.663, 370.578 715.872 C 367.553 708.698, 363.194 706, 354.631 706 C 349.957 706, 349.027 706.377, 346 709.500 C 344.134 711.425, 341.963 713, 341.175 713 C 340.387 713, 337.999 711.425, 335.868 709.500 C 332.296 706.273, 331.498 706, 325.635 706 C 320.056 706, 318.805 706.373, 315.453 709.038 M 680.180 709.578 C 675.715 713.399, 674.629 717, 677.941 717 C 679.009 717, 680.139 716.584, 680.453 716.076 C 680.767 715.569, 683.189 714.434, 685.837 713.554 C 690.170 712.115, 691.012 712.107, 694.289 713.476 C 698.590 715.273, 700.235 717.902, 699.810 722.296 C 699.508 725.418, 699.290 725.553, 691.282 727.592 C 682.898 729.726, 676.473 733.327, 672.819 737.938 C 671.142 740.056, 670.884 741.454, 671.334 746 C 671.808 750.784, 672.364 751.923, 675.606 754.750 C 678.584 757.347, 680.207 758, 683.680 758 C 686.071 758, 688.809 757.626, 689.764 757.169 C 690.719 756.712, 692.999 755.587, 694.831 754.669 C 699.240 752.460, 701.491 752.564, 704.973 755.138 C 707.154 756.751, 708.659 757.118, 711.088 756.632 C 716.635 755.523, 719.248 752, 714.523 752 C 710.124 752, 708.515 747.945, 708.390 736.540 C 708.128 712.559, 708.438 714.438, 704 710 C 700.015 706.015, 699.970 706, 692.180 706 C 684.656 706, 684.202 706.135, 680.180 709.578 M 276.233 731.750 L 276.500 756.500 280 756.500 L 283.500 756.500 283.767 731.750 L 284.035 707 280 707 L 275.965 707 276.233 731.750 M 725.820 722.061 C 725.583 730.402, 725.584 739.928, 725.823 743.230 C 726.215 748.655, 726.662 749.655, 730.457 753.617 C 734.420 757.753, 734.967 758, 740.150 758 C 744.695 758, 746.322 757.487, 749.572 755.028 C 754.191 751.533, 756.527 751.248, 758 754 C 758.754 755.409, 760.094 756, 762.535 756 L 766 756 766 731.500 L 766 707 762 707 L 758 707 758 725.411 L 758 743.822 754.955 746.385 C 748.734 751.619, 739.584 751.985, 736.288 747.133 C 734.783 744.917, 734.421 741.573, 734 726 L 733.500 707.500 729.875 707.197 L 726.251 706.894 725.820 722.061 M 830.750 709.716 C 826.516 710.358, 818.385 722.785, 820.692 725.092 C 821.249 725.649, 826.764 725.945, 833.571 725.783 C 844.286 725.528, 845.512 725.313, 845.835 723.628 C 846.711 719.058, 838.824 708.694, 834.817 709.150 C 834.093 709.232, 832.263 709.487, 830.750 709.716 M 636.250 711.584 C 634.462 712.366, 633 713.624, 633 714.380 C 633 715.137, 632.325 716.315, 631.500 717 C 630.654 717.703, 630 719.882, 630 722.004 L 630 725.762 639.250 726.454 C 648.765 727.165, 654.014 726.211, 653.985 723.775 C 653.941 720.081, 650.895 714.343, 647.881 712.278 C 644.125 709.704, 640.978 709.517, 636.250 711.584 M 400.756 712.569 C 397.808 714.169, 394 720.607, 394 723.992 C 394 725.986, 394.441 726.053, 405.750 725.782 L 417.500 725.500 417.802 722.896 C 418.236 719.162, 414.482 713.364, 410.799 712.080 C 406.683 710.645, 404.067 710.772, 400.756 712.569 M 580.402 713.905 C 578.148 714.929, 576.010 716.531, 575.652 717.465 C 575.293 718.399, 575.002 725.089, 575.004 732.332 C 575.008 748.602, 576.149 751.345, 583.361 752.427 C 591.872 753.703, 600 749.174, 600 743.155 C 600 742.035, 600.450 740.840, 601 740.500 C 602.787 739.395, 602.111 728.372, 599.892 722.442 C 597.979 717.329, 597.309 716.587, 592.642 714.414 C 586.480 711.545, 585.673 711.511, 580.402 713.905 M 240 732.184 C 233.053 734.810, 232.262 735.464, 229.868 740.558 L 227.907 744.729 230.052 748.364 C 231.834 751.384, 232.760 752, 235.516 752 C 239.980 752, 247.694 748.585, 248.337 746.325 C 249.707 741.503, 250.081 734.019, 249.047 732.087 C 247.685 729.543, 246.964 729.551, 240 732.184 M 506.707 731.533 C 500.914 733.659, 497.536 736.485, 495.566 740.854 C 493.836 744.690, 493.838 744.912, 495.637 747.365 C 498.741 751.596, 502.285 752.545, 507.520 750.546 C 513.445 748.283, 515 745.853, 515 738.859 C 515 729.517, 514.178 728.791, 506.707 731.533 M 688.085 732.611 C 682.677 735.480, 680.015 739.307, 680.007 744.224 C 680.001 747.340, 680.482 748.198, 682.950 749.474 C 686.864 751.498, 690.592 751.368, 695.750 749.027 L 700 747.098 700 738.549 L 700 730 696.250 730.134 C 694.188 730.208, 690.513 731.323, 688.085 732.611" stroke="none" fill="#c29340" fill-rule="evenodd"/></svg>